<svg width="16" height="17" viewBox="0 0 16 17" fill="none" xmlns="http://www.w3.org/2000/svg">
<path d="M14.44 5.115C14.06 4.155 13.54 3.335 12.87 2.655C12.21 1.975 11.43 1.435 10.53 1.065C9.63 0.684999 8.65 0.494999 7.6 0.494999C6.55 0.494999 5.55 0.694999 4.62 1.105C3.69 1.515 2.89 2.075 2.21 2.785C1.52 3.515 0.98 4.365 0.59 5.335C0.2 6.305 0 7.355 0 8.475C0 9.665 0.19 10.745 0.57 11.735C0.95 12.725 1.47 13.575 2.15 14.285C2.82 14.985 3.62 15.535 4.54 15.925C5.47 16.315 6.47 16.505 7.56 16.505C8.2 16.505 8.78 16.475 9.3 16.415C9.82 16.355 10.36 16.255 10.91 16.135V14.185C10.4 14.335 9.85 14.455 9.24 14.555C8.64 14.645 8.08 14.695 7.56 14.695C6.83 14.695 6.13 14.565 5.46 14.295C4.79 14.025 4.21 13.635 3.7 13.115C3.18 12.585 2.77 11.935 2.47 11.165C2.19 10.375 2.04 9.495 2.04 8.495C2.04 7.555 2.2 6.705 2.51 5.935C2.83 5.165 3.25 4.525 3.77 3.995C4.32 3.455 4.91 3.045 5.56 2.765C6.2 2.495 6.89 2.355 7.61 2.355C8.38 2.355 9.09 2.475 9.75 2.725C10.41 2.975 10.98 3.355 11.47 3.865C11.95 4.375 12.33 5.005 12.6 5.755C12.87 6.505 13 7.385 13 8.385C13 8.955 12.94 9.515 12.83 10.065C12.72 10.615 12.57 11.095 12.39 11.495H11.01V4.085L8.99 4.095V4.655C8.82 4.495 8.59 4.325 8.28 4.175C7.97 4.015 7.63 3.935 7.23 3.935C6.74 3.935 6.27 4.045 5.82 4.275C5.37 4.495 4.98 4.805 4.65 5.185C4.3 5.605 4.02 6.105 3.81 6.695C3.61 7.275 3.5 7.915 3.5 8.625C3.5 9.315 3.58 9.955 3.75 10.545C3.92 11.135 4.15 11.615 4.43 11.995C4.72 12.385 5.07 12.685 5.48 12.895C5.88 13.105 6.32 13.205 6.79 13.205C7.11 13.205 7.36 13.185 7.54 13.155C7.72 13.115 7.92 13.065 8.14 12.985C8.33 12.915 8.5 12.835 8.66 12.735C8.82 12.635 8.97 12.535 9.13 12.425L9.27 13.135H13.76C14.11 12.575 14.4 11.845 14.65 10.935C14.89 10.035 15.01 9.165 15.01 8.325C15.01 7.145 14.82 6.075 14.44 5.115ZM8.22 11.245C7.98 11.375 7.71 11.435 7.39 11.435C6.78 11.435 6.35 11.205 6.08 10.735C5.81 10.265 5.68 9.555 5.68 8.595C5.68 7.725 5.84 7.035 6.16 6.505C6.48 5.985 6.94 5.715 7.53 5.715C7.8 5.715 8.04 5.745 8.25 5.805C8.46 5.865 8.69 5.955 8.94 6.085V10.705C8.7 10.945 8.46 11.125 8.22 11.245Z" fill="#90A4AE"/>
</svg>
