<svg width="213" height="40" viewBox="0 0 213 40" fill="none" xmlns="http://www.w3.org/2000/svg">
<g clip-path="url(#clip0)">
<path d="M18.3483 20.0164H10.0082V10.0082H0V20.0164V29.9918V40H10.0082V29.9918H18.3483V20.0164Z" fill="#90A4AE"/>
<path d="M40 10.0082V20.0164H31.6598V29.9918H40V40H50.0082V29.9918V20.0164V10.0082H40Z" fill="#90A4AE"/>
<path d="M29.9918 10.0082H40V0H29.9918H19.9836H10.0082V10.0082H20.0163V20.0164V30.0245H30.0245V20.0164L29.9918 10.0082ZM24.9877 27.1464C23.8103 27.1464 22.8291 26.1652 22.8291 24.9877C22.8291 23.8103 23.8103 22.8291 24.9877 22.8291C26.1651 22.8291 27.1463 23.8103 27.1463 24.9877C27.1463 26.1979 26.1979 27.1464 24.9877 27.1464Z" fill="#9432D8"/>
<path fill-rule="evenodd" clip-rule="evenodd" d="M181.394 5.87313C180.248 5.87313 179.313 6.83819 179.313 7.98419C179.313 9.13019 180.278 10.0651 181.394 10.0651C182.57 10.0651 183.505 9.13019 183.505 7.98419C183.505 6.83819 182.54 5.87313 181.394 5.87313ZM179.705 11.6635V24.8425H183.113V11.6635H179.705ZM132.176 9.2791L132.206 9.28098H132.176V9.2791ZM132.176 6.02392V9.2791C130.326 9.16817 129.402 9.89291 129.402 11.5127V11.6333H132.206V14.8904H129.402V24.8123H125.994V14.9205H124.094V11.6635H125.994V11.5428C125.994 7.83339 128.075 5.78265 132.176 6.02392ZM73.5792 9.85398V6.38582H60.0082V9.85398H64.9541V24.8123H68.6032V9.85398H73.5792ZM80.6965 11.392C78.887 11.392 77.3188 12.2365 76.6855 13.9253V11.6635H73.2777V24.8425H76.6855V18.5395C76.6855 17.2728 77.0776 16.3681 77.8918 15.8252C78.7061 15.2824 79.6712 15.0713 80.6965 15.1919V11.392ZM92.2169 11.6635H95.6247V24.8425H92.2169V23.2743C91.1915 24.5711 89.7741 25.2044 87.9344 25.2044C86.1551 25.2044 84.6774 24.5409 83.4107 23.214C82.1743 21.8568 81.5409 20.1982 81.5409 18.268C81.5409 16.3078 82.1743 14.6793 83.4107 13.3523C84.6774 11.9952 86.1853 11.3317 87.9344 11.3317C89.7741 11.3317 91.1915 11.965 92.2169 13.2618V11.6635ZM88.5677 21.9473C89.6233 21.9473 90.4979 21.6156 91.1915 20.9219C91.9153 20.1982 92.247 19.3236 92.247 18.2379C92.247 17.1522 91.9153 16.2475 91.1915 15.584C90.4979 14.8602 89.6233 14.5285 88.5677 14.5285C87.5122 14.5285 86.6376 14.8602 85.944 15.584C85.2504 16.2776 84.9186 17.1522 84.9186 18.2379C84.9186 19.3236 85.2504 20.2283 85.944 20.9219C86.6376 21.6156 87.5122 21.9473 88.5677 21.9473ZM110.674 16.73C110.674 15.011 110.191 13.684 109.256 12.719C108.351 11.7539 107.175 11.2714 105.697 11.3016C103.918 11.3016 102.591 11.9047 101.777 13.1412V11.6635H98.3691V24.8123H101.777V17.695C101.777 15.5237 102.893 14.438 104.672 14.438C106.27 14.438 107.296 15.3729 107.296 17.1522V24.8123H110.674V16.73ZM118.726 16.8506C120.656 17.2427 123.159 18.1776 123.129 20.9823C123.129 22.3394 122.616 23.3949 121.591 24.1187C120.595 24.8425 119.329 25.2044 117.821 25.2044C115.107 25.2044 113.267 24.1488 112.272 22.0679L115.227 20.4093C115.619 21.5553 116.464 22.1283 117.821 22.1283C119.027 22.1283 119.63 21.7664 119.63 20.9823C119.63 20.2585 118.575 19.8664 117.218 19.5347C115.258 19.022 112.815 18.2077 112.815 15.4634C112.815 14.1666 113.297 13.1412 114.232 12.4174C115.197 11.6635 116.404 11.2714 117.821 11.2714C119.962 11.2714 121.802 12.2666 122.827 14.0761L119.932 15.6443C119.51 14.7396 118.786 14.2872 117.821 14.2872C116.946 14.2872 116.283 14.7094 116.283 15.3729C116.343 16.0967 117.399 16.4887 118.726 16.8506ZM139.746 25.2044C137.785 25.2044 136.127 24.5409 134.8 23.214C133.443 21.8568 132.809 20.1982 132.809 18.268C132.809 16.3078 133.473 14.6793 134.8 13.3523C136.157 11.9952 137.816 11.3317 139.746 11.3317C141.706 11.3317 143.365 12.0254 144.692 13.3523C146.049 14.7094 146.712 16.3379 146.712 18.268C146.712 20.2283 146.019 21.887 144.692 23.214C143.365 24.5409 141.706 25.2044 139.746 25.2044ZM139.746 21.887C140.771 21.887 141.616 21.5553 142.309 20.8616C143.003 20.168 143.335 19.2934 143.335 18.2379C143.335 17.1824 143.003 16.3078 142.309 15.6142C141.616 14.9205 140.771 14.5888 139.746 14.5888C138.72 14.5888 137.876 14.9205 137.182 15.6142C136.519 16.3078 136.187 17.1824 136.187 18.2379C136.187 19.2934 136.519 20.168 137.182 20.8616C137.876 21.5251 138.72 21.887 139.746 21.887ZM156.152 11.392C154.342 11.392 152.774 12.2365 152.141 13.9253V11.6635H148.733V24.8425H152.141V18.5395C152.141 17.2728 152.533 16.3681 153.347 15.8252C154.161 15.2824 155.126 15.0713 156.152 15.1919V11.392ZM177.081 16.6998V24.8123H173.673V16.9411C173.673 15.3729 172.859 14.438 171.472 14.438C169.904 14.438 169.029 15.4935 169.029 17.4236V24.8425H165.621V16.9411C165.621 15.3729 164.807 14.438 163.42 14.438C161.912 14.438 160.947 15.4935 160.947 17.4236V24.8425H157.539V11.6635H160.947V13.0507C161.731 11.8746 162.937 11.2714 164.596 11.2714C166.194 11.2714 167.431 11.9047 168.185 13.1714C169.059 11.9047 170.386 11.2714 172.105 11.2714C175.151 11.2714 177.081 13.4126 177.081 16.6998ZM187.033 23.1838C185.707 21.8267 185.043 20.1982 185.043 18.2379C185.043 16.2475 185.707 14.6189 187.033 13.292C188.391 11.9349 190.049 11.3016 192.01 11.3016C194.573 11.3016 196.835 12.6285 197.92 14.7094L194.995 16.4284C194.482 15.3427 193.336 14.6491 191.979 14.6491C189.959 14.6491 188.451 16.157 188.451 18.268C188.451 19.2934 188.783 20.168 189.446 20.8616C190.11 21.5251 190.954 21.8568 191.979 21.8568C193.336 21.8568 194.482 21.1934 194.995 20.1077L197.951 21.7965C196.805 23.8774 194.543 25.2345 192.01 25.2345C190.019 25.2044 188.36 24.5409 187.033 23.1838ZM212.758 11.6635H209.35V13.2618C208.325 11.965 206.908 11.3317 205.068 11.3317C203.319 11.3317 201.811 11.9952 200.544 13.3523C199.308 14.6793 198.674 16.3078 198.674 18.268C198.674 20.1982 199.308 21.8568 200.544 23.214C201.811 24.5409 203.289 25.2044 205.068 25.2044C206.908 25.2044 208.325 24.5711 209.35 23.2743V24.8425H212.758V11.6635ZM208.295 20.9219C207.601 21.6156 206.727 21.9473 205.671 21.9473C204.616 21.9473 203.771 21.6156 203.047 20.9219C202.354 20.2283 202.022 19.3236 202.022 18.2379C202.022 17.1522 202.354 16.2776 203.047 15.584C203.741 14.8602 204.616 14.5285 205.671 14.5285C206.727 14.5285 207.601 14.8602 208.295 15.584C209.019 16.2475 209.35 17.1522 209.35 18.2379C209.35 19.3236 209.019 20.1982 208.295 20.9219Z" fill="#9432D8"/>
<path fill-rule="evenodd" clip-rule="evenodd" d="M126.614 31.9242C126.614 30.9285 127.368 30.2345 128.334 30.2345C129.058 30.2345 129.45 30.6268 129.691 31.019L129.088 31.3208C128.937 31.0492 128.665 30.838 128.334 30.838C127.73 30.838 127.308 31.2906 127.308 31.8941C127.308 32.4975 127.73 32.9501 128.334 32.9501C128.665 32.9501 128.967 32.7389 129.088 32.4673L129.691 32.7389C129.45 33.1312 129.058 33.5234 128.334 33.5234C127.368 33.5838 126.614 32.9199 126.614 31.9242ZM67.8061 33.5234V31.2604L66.9009 33.5234H66.5992L65.694 31.2604V33.5234H65V30.2647H65.9655L66.75 32.226L67.5346 30.2647H68.5001V33.5234H67.8061ZM70.2501 33.4932V30.2647H72.5433V30.8682H70.9441V31.5621H72.5131V32.1656H70.9441V32.8898H72.5433V33.4932H70.2501ZM75.621 32.3466L76.4356 33.5234H77.2503L76.0736 31.8639L77.19 30.2949H76.3451L75.621 31.4113L74.8666 30.2949H74.052L75.1684 31.8639L73.9916 33.5234H74.8063L75.621 32.3466ZM81.1125 33.5234L80.9013 32.9803H79.5133L79.3021 33.5234H78.5176L79.7849 30.2647H80.6599L81.897 33.5234H81.1125ZM80.2375 30.9889L79.7245 32.3768H80.7504L80.2375 30.9889ZM85.5781 32.1656V33.5234H86.2721V30.2647H85.5781V31.532H84.0393V30.2647H83.3453V33.5234H84.0393V32.1656H85.5781ZM88.0523 33.5234V30.2647H88.7463V32.3467L90.255 30.2647H90.9791V33.5234H90.2851V31.3509L88.7463 33.5234H88.0523ZM92.8499 32.6182L92.4878 33.0708C92.699 33.3725 93.2119 33.5838 93.8758 33.6139C94.6301 33.6139 95.2034 33.2217 95.2034 32.6484C95.2034 32.1656 94.7809 31.8941 94.449 31.8639C94.7809 31.8035 95.143 31.5621 95.143 31.1397C95.143 30.5966 94.5999 30.2647 93.8456 30.2647C93.2723 30.2647 92.8197 30.4759 92.5481 30.7776L92.88 31.2001C93.0912 30.9889 93.4533 30.8682 93.7551 30.8682C94.1171 30.8682 94.4189 30.9889 94.4189 31.2604C94.4189 31.4716 94.1473 31.5923 93.7551 31.5923H93.0912V32.1958H93.7249C94.2077 32.1958 94.449 32.2863 94.449 32.5579C94.449 32.7992 94.2077 32.9803 93.7852 32.9803C93.4835 32.9803 93.0611 32.8596 92.8499 32.6182ZM99.6087 33.5234V31.2604L98.7035 33.5234H98.4017L97.4966 31.2604V33.5234H96.8026V30.2647H97.7681L98.5526 32.226L99.3371 30.2647H100.303V33.5234H99.6087ZM103.561 31.4415H102.747V30.2949H102.053V33.5536H103.561C104.255 33.5536 104.648 33.0708 104.648 32.4975C104.648 31.9242 104.255 31.4415 103.561 31.4415ZM102.747 32.9199V32.0449V32.0147H103.471C103.742 32.0147 103.954 32.1958 103.954 32.4673C103.954 32.7691 103.742 32.9199 103.471 32.9199H102.747ZM104.949 30.2647V33.5234H105.643V30.2647H104.949ZM110.501 33.5234V30.8983H109.566V30.2949H112.161V30.8983H111.195V33.5234H110.501ZM113.669 30.2647V33.5234H114.363V32.3768H115.178C115.872 32.3768 116.264 31.8941 116.264 31.3208C116.264 30.7475 115.872 30.2647 115.178 30.2647H113.669ZM115.088 30.8983C115.359 30.8983 115.57 31.0794 115.57 31.3509C115.57 31.5923 115.359 31.7734 115.088 31.7734H114.363V30.8983H115.088ZM119.855 33.5234L119.644 32.9803H118.256L118.044 33.5234H117.26L118.527 30.2647H119.402L120.639 33.5234H119.855ZM118.95 30.9889L118.437 32.3768H119.463L118.95 30.9889ZM124.32 32.1656V33.5234H125.014V30.2647H124.32V31.532H122.782V30.2647H122.088V33.5234H122.782V32.1656H124.32ZM132.558 33.1915V33.5234H133.252V33.1915C134.247 33.101 134.821 32.6484 134.821 31.8941C134.821 31.1397 134.247 30.6871 133.252 30.5966V30.2647H132.558V30.5966C131.562 30.6871 130.989 31.1397 130.989 31.8941C130.989 32.6484 131.562 33.101 132.558 33.1915ZM132.558 31.2302V32.588C131.984 32.5277 131.683 32.2863 131.713 31.8941C131.713 31.532 131.984 31.2906 132.558 31.2302ZM133.252 32.588V31.2302C133.795 31.3208 134.127 31.5621 134.127 31.9242C134.127 32.2863 133.825 32.5277 133.252 32.588ZM136.299 31.9242C136.299 30.9587 137.023 30.2345 137.989 30.2345C138.985 30.2345 139.679 30.9285 139.679 31.9242C139.679 32.9199 138.955 33.6139 137.989 33.6139C136.993 33.5838 136.299 32.8898 136.299 31.9242ZM138.955 31.9242C138.955 31.3208 138.562 30.8682 137.959 30.8682C137.355 30.8682 136.963 31.3208 136.963 31.9242C136.963 32.5277 137.355 32.9803 137.959 32.9803C138.592 32.9803 138.955 32.5277 138.955 31.9242ZM142.786 30.2647H141.278V33.5234H141.972V32.3768H142.786C143.48 32.3768 143.873 31.8941 143.873 31.3208C143.873 30.7475 143.48 30.2647 142.786 30.2647ZM142.696 30.8983C142.968 30.8983 143.179 31.0794 143.179 31.3509C143.179 31.5923 142.968 31.7734 142.696 31.7734H141.972V30.8983H142.696ZM148.218 33.5234V31.2604L147.312 33.5234H147.011L146.106 31.2604V33.5234H145.412V30.2647H146.377L147.162 32.226L147.946 30.2647H148.912V33.5234H148.218ZM152.744 32.9803L152.955 33.5234H153.739L152.502 30.2647H151.627L150.36 33.5234H151.145L151.356 32.9803H152.744ZM151.567 32.3768L152.08 30.9889L152.593 32.3768H151.567ZM157.752 33.5234H155.218V30.2647H155.912V32.8898H157.451V30.2647H158.145V32.8898H158.446V34.0967H157.752V33.5234ZM160.679 30.2647H159.985V33.5234H160.679L162.218 31.3509V33.5234H162.912V30.2647H162.188L160.679 32.3467V30.2647ZM164.662 30.2647H165.356V32.3467L166.865 30.2647H167.589V33.5234H166.895V31.3509L165.356 33.5234H164.662V30.2647ZM172.085 31.9544C171.994 32.7992 171.813 32.9501 171.481 32.9803H171.451V34.1269H172.145V33.5234H174.167V34.1269H174.861V32.9199H174.559V30.2949H172.266L172.085 31.9544ZM173.895 32.9199H172.386C172.598 32.7389 172.748 32.4372 172.779 31.9846L172.899 30.8983H173.895V32.9199ZM176.309 32.9803C176.641 32.9803 176.822 32.7992 176.912 31.9544L177.093 30.2949H179.387V33.5536H178.693V30.9285H177.697L177.576 32.0147C177.425 33.3725 176.943 33.6139 176.279 33.6139V32.9803H176.309ZM181.74 32.2863L181.016 33.5234H181.77L182.404 32.3768H182.917V33.5234H183.611V30.2647H182.102C181.438 30.2647 181.016 30.7173 181.016 31.3208C181.016 31.8941 181.378 32.1958 181.74 32.2863ZM182.947 30.8983V31.7734V31.8035H182.223C181.951 31.8035 181.74 31.6225 181.74 31.3509C181.74 31.0492 181.951 30.8983 182.223 30.8983H182.947ZM190.581 33.5234V31.2604L189.676 33.5234H189.374L188.469 31.2604V33.5234H187.775V30.2647H188.74L189.525 32.226L190.309 30.2647H191.275V33.5234H190.581ZM193.025 30.2647V33.4932H195.318V32.8898H193.719V32.1656H195.288V31.5621H193.719V30.8682H195.318V30.2647H193.025ZM199.391 30.8983H197.702V31.4716H198.547C199.241 31.4716 199.633 31.9544 199.633 32.4975C199.633 33.0406 199.241 33.5234 198.547 33.5234H197.008V30.2647H199.391V30.2949V30.8983ZM197.702 32.9199H198.456C198.728 32.9199 198.909 32.7691 198.909 32.4975C198.909 32.226 198.728 32.0751 198.456 32.0751H197.702V32.9199ZM201.172 30.2647V33.4932H203.465V32.8898H201.866V32.1656H203.435V31.5621H201.866V30.8682H203.465V30.2647H201.172ZM204.973 32.9803C205.305 32.9803 205.486 32.7992 205.577 31.9544L205.758 30.2949H208.051V33.5536H207.357V30.9285H206.361L206.241 32.0147C206.09 33.3725 205.607 33.6139 204.943 33.6139V32.9803H204.973ZM210.525 30.2647H209.831V33.5234H210.525L212.064 31.3509V33.5234H212.758V30.2647H212.034L210.525 32.3467V30.2647Z" fill="#90A4AE"/>
</g>
<defs>
<clipPath id="clip0">
<rect width="212.758" height="40" fill="white"/>
</clipPath>
</defs>
</svg>
