<svg width="16" height="20" viewBox="0 0 16 20" fill="none" xmlns="http://www.w3.org/2000/svg">
<path d="M7.72727 0C3.46769 0 0 3.44444 0 7.67548C0 12.9291 7.72727 20 7.72727 20C7.72727 20 15.4545 12.9291 15.4545 7.67548C15.4587 3.44444 11.991 0 7.72727 0Z" fill="#9432D8"/>
<path d="M9.16358 7.83333H12V5H9.16358H6.32715H3.5V7.83333H6.33642V10.6667V13.5H9.17285V10.6667L9.16358 7.83333ZM7.74537 12.6852C7.41167 12.6852 7.13359 12.4074 7.13359 12.0741C7.13359 11.7407 7.41167 11.463 7.74537 11.463C8.07906 11.463 8.35714 11.7407 8.35714 12.0741C8.35714 12.4167 8.08833 12.6852 7.74537 12.6852Z" fill="white"/>
</svg>
