<svg width="21" height="19" viewBox="0 0 21 19" fill="none" xmlns="http://www.w3.org/2000/svg">
<path fill-rule="evenodd" clip-rule="evenodd" d="M5.95856 0.0195312C5.95856 0.030918 5.89346 0.0390625 5.80231 0.0390625C5.71115 0.0390625 5.64606 0.047207 5.64606 0.0585938C5.64606 0.0694531 5.59397 0.078125 5.52887 0.078125C5.46377 0.078125 5.41168 0.0867969 5.41168 0.0976562C5.41168 0.108398 5.37653 0.117188 5.33356 0.117188C5.29059 0.117188 5.25543 0.125977 5.25543 0.136719C5.25543 0.147461 5.22028 0.15625 5.17731 0.15625C5.13434 0.15625 5.09918 0.165039 5.09918 0.175781C5.09918 0.186523 5.06403 0.195312 5.02106 0.195312C4.97809 0.195312 4.94293 0.204102 4.94293 0.214844C4.94293 0.225586 4.91656 0.234375 4.88434 0.234375C4.85211 0.234375 4.82574 0.243164 4.82574 0.253906C4.82574 0.264648 4.79938 0.273438 4.76715 0.273438C4.73492 0.273438 4.70856 0.282227 4.70856 0.292969C4.70856 0.303711 4.68219 0.3125 4.64996 0.3125C4.61774 0.3125 4.59137 0.321289 4.59137 0.332031C4.59137 0.342773 4.565 0.351562 4.53278 0.351562C4.50055 0.351562 4.47418 0.360352 4.47418 0.371094C4.47418 0.381836 4.44781 0.390625 4.41559 0.390625C4.38336 0.390625 4.35699 0.399414 4.35699 0.410156C4.35699 0.420898 4.33942 0.429688 4.31793 0.429688C4.29645 0.429688 4.27887 0.438477 4.27887 0.449219C4.27887 0.459961 4.26129 0.46875 4.23981 0.46875C4.21832 0.46875 4.20074 0.477539 4.20074 0.488281C4.20074 0.499023 4.18317 0.507812 4.16168 0.507812C4.1402 0.507812 4.12262 0.516602 4.12262 0.527344C4.12262 0.538086 4.09625 0.546875 4.06403 0.546875C4.0318 0.546875 4.00543 0.555664 4.00543 0.566406C4.00543 0.577148 3.98785 0.585938 3.96637 0.585938C3.94489 0.585938 3.92731 0.594727 3.92731 0.605469C3.92731 0.616211 3.90973 0.625 3.88824 0.625C3.86676 0.625 3.84918 0.633789 3.84918 0.644531C3.84918 0.655273 3.83354 0.664062 3.81444 0.664062C3.79531 0.664062 3.76701 0.681641 3.75153 0.703125C3.73604 0.724609 3.70774 0.742188 3.68862 0.742188C3.66951 0.742188 3.65387 0.750977 3.65387 0.761719C3.65387 0.772461 3.63629 0.78125 3.61481 0.78125C3.59332 0.78125 3.57574 0.790039 3.57574 0.800781C3.57574 0.811523 3.5601 0.820312 3.541 0.820312C3.52188 0.820312 3.49358 0.837891 3.47809 0.859375C3.4626 0.880859 3.43623 0.898438 3.41949 0.898438C3.40276 0.898438 3.37639 0.916016 3.3609 0.9375C3.34541 0.958984 3.31905 0.976562 3.30231 0.976562C3.28557 0.976562 3.2592 0.994141 3.24371 1.01562C3.22822 1.03711 3.20186 1.05469 3.18512 1.05469C3.16838 1.05469 3.14201 1.07227 3.12653 1.09375C3.11104 1.11523 3.08645 1.13281 3.07186 1.13281C3.05727 1.13281 3.01156 1.16797 2.97028 1.21094C2.92899 1.25391 2.88569 1.28906 2.87403 1.28906C2.84633 1.28906 2.13043 2.00496 2.13043 2.03266C2.13043 2.04432 2.09528 2.08762 2.05231 2.12891C2.00934 2.1702 1.97418 2.2159 1.97418 2.23049C1.97418 2.24508 1.9566 2.26967 1.93512 2.28516C1.91364 2.30064 1.89606 2.32701 1.89606 2.34375C1.89606 2.36049 1.87848 2.38686 1.85699 2.40234C1.83551 2.41783 1.81793 2.4442 1.81793 2.46094C1.81793 2.47768 1.80035 2.50404 1.77887 2.51953C1.75739 2.53502 1.73981 2.56139 1.73981 2.57812C1.73981 2.59486 1.72223 2.62123 1.70074 2.63672C1.67926 2.65221 1.66168 2.68051 1.66168 2.69963C1.66168 2.71873 1.65289 2.73438 1.64215 2.73438C1.63141 2.73438 1.62262 2.75195 1.62262 2.77344C1.62262 2.79492 1.61383 2.8125 1.60309 2.8125C1.59235 2.8125 1.58356 2.83008 1.58356 2.85156C1.58356 2.87305 1.57477 2.89062 1.56403 2.89062C1.55328 2.89062 1.54449 2.9082 1.54449 2.92969C1.54449 2.95117 1.53571 2.96875 1.52496 2.96875C1.51422 2.96875 1.50543 2.98633 1.50543 3.00781C1.50543 3.0293 1.49664 3.04688 1.4859 3.04688C1.47516 3.04688 1.46637 3.06445 1.46637 3.08594C1.46637 3.10742 1.45758 3.125 1.44684 3.125C1.4361 3.125 1.42731 3.14258 1.42731 3.16406C1.42731 3.18555 1.41852 3.20312 1.40778 3.20312C1.39703 3.20312 1.38824 3.22949 1.38824 3.26172C1.38824 3.29395 1.37946 3.32031 1.36871 3.32031C1.35797 3.32031 1.34918 3.33789 1.34918 3.35938C1.34918 3.38086 1.34039 3.39844 1.32965 3.39844C1.31891 3.39844 1.31012 3.4248 1.31012 3.45703C1.31012 3.48926 1.30133 3.51562 1.29059 3.51562C1.27985 3.51562 1.27106 3.5332 1.27106 3.55469C1.27106 3.57617 1.26227 3.59375 1.25153 3.59375C1.24078 3.59375 1.23199 3.62012 1.23199 3.65234C1.23199 3.68457 1.22321 3.71094 1.21246 3.71094C1.20172 3.71094 1.19293 3.74609 1.19293 3.78906C1.19293 3.83203 1.18414 3.86719 1.1734 3.86719C1.16266 3.86719 1.15387 3.90234 1.15387 3.94531C1.15387 3.98828 1.14508 4.02344 1.13434 4.02344C1.1236 4.02344 1.11481 4.05859 1.11481 4.10156C1.11481 4.14453 1.10602 4.17969 1.09528 4.17969C1.08442 4.17969 1.07574 4.23178 1.07574 4.29688C1.07574 4.36197 1.06707 4.41406 1.05621 4.41406C1.04463 4.41406 1.03668 4.48568 1.03668 4.58984C1.03668 4.694 1.02873 4.76562 1.01715 4.76562C1.00479 4.76562 0.99762 4.90885 0.99762 5.15625C0.99762 5.40365 1.00479 5.54688 1.01715 5.54688C1.02854 5.54688 1.03668 5.61197 1.03668 5.70312C1.03668 5.79428 1.04483 5.85938 1.05621 5.85938C1.06696 5.85938 1.07574 5.90332 1.07574 5.95703C1.07574 6.01074 1.08453 6.05469 1.09528 6.05469C1.10602 6.05469 1.11481 6.09863 1.11481 6.15234C1.11481 6.20605 1.1236 6.25 1.13434 6.25C1.14508 6.25 1.15387 6.27637 1.15387 6.30859C1.15387 6.34082 1.16266 6.36719 1.1734 6.36719C1.18414 6.36719 1.19293 6.40234 1.19293 6.44531C1.19293 6.48828 1.20172 6.52344 1.21246 6.52344C1.22321 6.52344 1.23199 6.54102 1.23199 6.5625C1.23199 6.58398 1.24078 6.60156 1.25153 6.60156C1.26227 6.60156 1.27106 6.62793 1.27106 6.66016C1.27106 6.69238 1.27985 6.71875 1.29059 6.71875C1.30133 6.71875 1.31012 6.74512 1.31012 6.77734C1.31012 6.80957 1.31891 6.83594 1.32965 6.83594C1.34039 6.83594 1.34918 6.85352 1.34918 6.875C1.34918 6.89648 1.35797 6.91406 1.36871 6.91406C1.37946 6.91406 1.38824 6.93164 1.38824 6.95312C1.38824 6.97461 1.39703 6.99219 1.40778 6.99219C1.41852 6.99219 1.42731 7.00977 1.42731 7.03125C1.42731 7.05273 1.4361 7.07031 1.44684 7.07031C1.45758 7.07031 1.46637 7.08789 1.46637 7.10938C1.46637 7.13086 1.47516 7.14844 1.4859 7.14844C1.49664 7.14844 1.50543 7.16602 1.50543 7.1875C1.50543 7.20898 1.51422 7.22656 1.52496 7.22656C1.53571 7.22656 1.54449 7.24414 1.54449 7.26562C1.54449 7.28711 1.55328 7.30469 1.56403 7.30469C1.57477 7.30469 1.58356 7.32033 1.58356 7.33943C1.58356 7.35855 1.60114 7.38686 1.62262 7.40234C1.6441 7.41783 1.66168 7.44613 1.66168 7.46525C1.66168 7.48436 1.67047 7.5 1.68121 7.5C1.69196 7.5 1.70074 7.51564 1.70074 7.53475C1.70074 7.55387 1.71832 7.58217 1.73981 7.59766C1.76129 7.61314 1.77887 7.63951 1.77887 7.65625C1.77887 7.67299 1.79645 7.69936 1.81793 7.71484C1.83942 7.73033 1.85699 7.75863 1.85699 7.77775C1.85699 7.79686 1.86578 7.8125 1.87653 7.8125C1.88727 7.8125 1.89606 7.83887 1.89606 7.87109C1.89606 7.90332 1.88727 7.92969 1.87653 7.92969C1.86514 7.92969 1.85699 7.99479 1.85699 8.08594C1.85699 8.17709 1.84885 8.24219 1.83746 8.24219C1.82608 8.24219 1.81793 8.30729 1.81793 8.39844C1.81793 8.48959 1.80979 8.55469 1.7984 8.55469C1.7858 8.55469 1.77887 8.76953 1.77887 9.16016C1.77887 9.55078 1.7858 9.76562 1.7984 9.76562C1.81012 9.76562 1.81793 9.84375 1.81793 9.96094C1.81793 10.0781 1.82574 10.1562 1.83746 10.1562C1.84885 10.1562 1.85699 10.2213 1.85699 10.3125C1.85699 10.4037 1.86514 10.4688 1.87653 10.4688C1.88727 10.4688 1.89606 10.5127 1.89606 10.5664C1.89606 10.6201 1.90485 10.6641 1.91559 10.6641C1.92645 10.6641 1.93512 10.7162 1.93512 10.7812C1.93512 10.8463 1.94379 10.8984 1.95465 10.8984C1.96539 10.8984 1.97418 10.9336 1.97418 10.9766C1.97418 11.0195 1.98297 11.0547 1.99371 11.0547C2.00446 11.0547 2.01324 11.0898 2.01324 11.1328C2.01324 11.1758 2.02203 11.2109 2.03278 11.2109C2.04352 11.2109 2.05231 11.2461 2.05231 11.2891C2.05231 11.332 2.0611 11.3672 2.07184 11.3672C2.08258 11.3672 2.09137 11.3936 2.09137 11.4258C2.09137 11.458 2.10016 11.4844 2.1109 11.4844C2.12164 11.4844 2.13043 11.5107 2.13043 11.543C2.13043 11.5752 2.13922 11.6016 2.14996 11.6016C2.16071 11.6016 2.16949 11.6367 2.16949 11.6797C2.16949 11.7227 2.17828 11.7578 2.18903 11.7578C2.19977 11.7578 2.20856 11.7754 2.20856 11.7969C2.20856 11.8184 2.21735 11.8359 2.22809 11.8359C2.23883 11.8359 2.24762 11.8623 2.24762 11.8945C2.24762 11.9268 2.25641 11.9531 2.26715 11.9531C2.27789 11.9531 2.28668 11.9795 2.28668 12.0117C2.28668 12.0439 2.29547 12.0703 2.30621 12.0703C2.31696 12.0703 2.32574 12.0967 2.32574 12.1289C2.32574 12.1611 2.33453 12.1875 2.34528 12.1875C2.35602 12.1875 2.36481 12.2051 2.36481 12.2266C2.36481 12.248 2.3736 12.2656 2.38434 12.2656C2.39508 12.2656 2.40387 12.2832 2.40387 12.3047C2.40387 12.3262 2.41266 12.3438 2.4234 12.3438C2.43414 12.3438 2.44293 12.3701 2.44293 12.4023C2.44293 12.4346 2.45172 12.4609 2.46246 12.4609C2.47321 12.4609 2.48199 12.4785 2.48199 12.5C2.48199 12.5215 2.49078 12.5391 2.50153 12.5391C2.51227 12.5391 2.52106 12.5566 2.52106 12.5781C2.52106 12.5996 2.52985 12.6172 2.54059 12.6172C2.55133 12.6172 2.56012 12.6348 2.56012 12.6562C2.56012 12.6777 2.56891 12.6953 2.57965 12.6953C2.59039 12.6953 2.59918 12.7129 2.59918 12.7344C2.59918 12.7559 2.60797 12.7734 2.61871 12.7734C2.62946 12.7734 2.63824 12.791 2.63824 12.8125C2.63824 12.834 2.64703 12.8516 2.65778 12.8516C2.66852 12.8516 2.67731 12.8691 2.67731 12.8906C2.67731 12.9121 2.6861 12.9297 2.69684 12.9297C2.70758 12.9297 2.71637 12.9473 2.71637 12.9688C2.71637 12.9902 2.72516 13.0078 2.7359 13.0078C2.74664 13.0078 2.75543 13.0254 2.75543 13.0469C2.75543 13.0684 2.76422 13.0859 2.77496 13.0859C2.78571 13.0859 2.79449 13.1035 2.79449 13.125C2.79449 13.1465 2.80328 13.1641 2.81403 13.1641C2.82477 13.1641 2.83356 13.1816 2.83356 13.2031C2.83356 13.2246 2.84235 13.2422 2.85309 13.2422C2.86383 13.2422 2.87262 13.2578 2.87262 13.2769C2.87262 13.2961 2.8902 13.3244 2.91168 13.3398C2.93317 13.3553 2.95074 13.3836 2.95074 13.4028C2.95074 13.4219 2.95953 13.4375 2.97028 13.4375C2.98102 13.4375 2.98981 13.4531 2.98981 13.4722C2.98981 13.4914 3.00739 13.5197 3.02887 13.5352C3.05035 13.5506 3.06793 13.5789 3.06793 13.5981C3.06793 13.6172 3.07672 13.6328 3.08746 13.6328C3.09821 13.6328 3.10699 13.6469 3.10699 13.664C3.10699 13.6812 3.13336 13.7199 3.16559 13.75C3.19781 13.7801 3.22418 13.8169 3.22418 13.8316C3.22418 13.8464 3.24176 13.8712 3.26324 13.8867C3.28473 13.9022 3.30231 13.9286 3.30231 13.9453C3.30231 13.9621 3.31989 13.9884 3.34137 14.0039C3.36285 14.0194 3.38043 14.0442 3.38043 14.059C3.38043 14.0738 3.4068 14.1105 3.43903 14.1406C3.47125 14.1707 3.49762 14.2059 3.49762 14.2188C3.49762 14.2316 3.52399 14.2668 3.55621 14.2969C3.58844 14.327 3.61481 14.3618 3.61481 14.3743C3.61481 14.3868 3.65875 14.4399 3.71246 14.4922C3.76617 14.5445 3.81012 14.5967 3.81012 14.6082C3.81012 14.6355 4.76055 15.5859 4.78785 15.5859C4.79934 15.5859 4.85155 15.6299 4.90387 15.6836C4.95619 15.7373 5.00922 15.7812 5.02172 15.7812C5.03422 15.7812 5.06908 15.8076 5.09918 15.8398C5.12928 15.8721 5.16444 15.8984 5.17731 15.8984C5.19018 15.8984 5.22533 15.9248 5.25543 15.957C5.28553 15.9893 5.32069 16.0156 5.33356 16.0156C5.34643 16.0156 5.38158 16.042 5.41168 16.0742C5.44178 16.1064 5.47854 16.1328 5.49332 16.1328C5.50813 16.1328 5.53291 16.1504 5.5484 16.1719C5.56389 16.1934 5.59026 16.2109 5.60699 16.2109C5.62373 16.2109 5.6501 16.2285 5.66559 16.25C5.68108 16.2715 5.70744 16.2891 5.72418 16.2891C5.74092 16.2891 5.76729 16.3066 5.78278 16.3281C5.79826 16.3496 5.82463 16.3672 5.84137 16.3672C5.85811 16.3672 5.88448 16.3848 5.89996 16.4062C5.91545 16.4277 5.94375 16.4453 5.96287 16.4453C5.98198 16.4453 5.99762 16.4541 5.99762 16.4648C5.99762 16.4756 6.01326 16.4844 6.03237 16.4844C6.05149 16.4844 6.07979 16.502 6.09528 16.5234C6.11076 16.5449 6.13907 16.5625 6.15819 16.5625C6.17729 16.5625 6.19293 16.5713 6.19293 16.582C6.19293 16.5928 6.21051 16.6016 6.23199 16.6016C6.25348 16.6016 6.27106 16.6104 6.27106 16.6211C6.27106 16.6318 6.2867 16.6406 6.3058 16.6406C6.32492 16.6406 6.35323 16.6582 6.36871 16.6797C6.3842 16.7012 6.4125 16.7188 6.43162 16.7188C6.45073 16.7188 6.46637 16.7275 6.46637 16.7383C6.46637 16.749 6.48395 16.7578 6.50543 16.7578C6.52692 16.7578 6.54449 16.7666 6.54449 16.7773C6.54449 16.7881 6.56207 16.7969 6.58356 16.7969C6.60504 16.7969 6.62262 16.8057 6.62262 16.8164C6.62262 16.8271 6.6402 16.8359 6.66168 16.8359C6.68317 16.8359 6.70074 16.8447 6.70074 16.8555C6.70074 16.8662 6.71832 16.875 6.73981 16.875C6.76129 16.875 6.77887 16.8838 6.77887 16.8945C6.77887 16.9053 6.80524 16.9141 6.83746 16.9141C6.86969 16.9141 6.89606 16.9229 6.89606 16.9336C6.89606 16.9443 6.91364 16.9531 6.93512 16.9531C6.9566 16.9531 6.97418 16.9619 6.97418 16.9727C6.97418 16.9834 6.99176 16.9922 7.01324 16.9922C7.03473 16.9922 7.05231 17.001 7.05231 17.0117C7.05231 17.0225 7.06989 17.0312 7.09137 17.0312C7.11285 17.0312 7.13043 17.04 7.13043 17.0508C7.13043 17.0615 7.14801 17.0703 7.16949 17.0703C7.19098 17.0703 7.20856 17.0791 7.20856 17.0898C7.20856 17.1006 7.23492 17.1094 7.26715 17.1094C7.29938 17.1094 7.32574 17.1182 7.32574 17.1289C7.32574 17.1396 7.34332 17.1484 7.36481 17.1484C7.38629 17.1484 7.40387 17.1572 7.40387 17.168C7.40387 17.1787 7.42145 17.1875 7.44293 17.1875C7.46442 17.1875 7.48199 17.1963 7.48199 17.207C7.48199 17.2178 7.50836 17.2266 7.54059 17.2266C7.57281 17.2266 7.59918 17.2354 7.59918 17.2461C7.59918 17.2568 7.62555 17.2656 7.65778 17.2656C7.69 17.2656 7.71637 17.2744 7.71637 17.2852C7.71637 17.2959 7.73395 17.3047 7.75543 17.3047C7.77692 17.3047 7.79449 17.3135 7.79449 17.3242C7.79449 17.335 7.82086 17.3438 7.85309 17.3438C7.88531 17.3438 7.91168 17.3525 7.91168 17.3633C7.91168 17.374 7.93805 17.3828 7.97028 17.3828C8.0025 17.3828 8.02887 17.3916 8.02887 17.4023C8.02887 17.4131 8.05524 17.4219 8.08746 17.4219C8.11969 17.4219 8.14606 17.4307 8.14606 17.4414C8.14606 17.4521 8.18121 17.4609 8.22418 17.4609C8.26715 17.4609 8.30231 17.4697 8.30231 17.4805C8.30231 17.4912 8.32867 17.5 8.3609 17.5C8.39313 17.5 8.41949 17.5088 8.41949 17.5195C8.41949 17.5303 8.45465 17.5391 8.49762 17.5391C8.54059 17.5391 8.57574 17.5479 8.57574 17.5586C8.57574 17.5693 8.6109 17.5781 8.65387 17.5781C8.69684 17.5781 8.73199 17.5869 8.73199 17.5977C8.73199 17.6084 8.76715 17.6172 8.81012 17.6172C8.85309 17.6172 8.88824 17.626 8.88824 17.6367C8.88824 17.6475 8.93219 17.6562 8.9859 17.6562C9.03961 17.6562 9.08356 17.665 9.08356 17.6758C9.08356 17.6866 9.13565 17.6953 9.20074 17.6953C9.26584 17.6953 9.31793 17.704 9.31793 17.7148C9.31793 17.7257 9.37002 17.7344 9.43512 17.7344C9.50022 17.7344 9.55231 17.743 9.55231 17.7539C9.55231 17.7653 9.6174 17.7734 9.70856 17.7734C9.79971 17.7734 9.86481 17.7816 9.86481 17.793C9.86481 17.8048 9.94944 17.8125 10.0797 17.8125C10.2099 17.8125 10.2945 17.8202 10.2945 17.832C10.2945 17.8447 10.5549 17.8516 11.0367 17.8516C11.5185 17.8516 11.7789 17.8447 11.7789 17.832C11.7789 17.8204 11.8505 17.8125 11.9547 17.8125C12.0588 17.8125 12.1304 17.8046 12.1304 17.793C12.1304 17.7812 12.2086 17.7734 12.3257 17.7734C12.4429 17.7734 12.5211 17.7812 12.5211 17.793C12.5211 17.8037 12.5386 17.8125 12.5601 17.8125C12.5816 17.8125 12.5992 17.8213 12.5992 17.832C12.5992 17.8428 12.6148 17.8516 12.6339 17.8516C12.653 17.8516 12.6813 17.8691 12.6968 17.8906C12.7123 17.9121 12.7406 17.9297 12.7597 17.9297C12.7789 17.9297 12.7945 17.9385 12.7945 17.9492C12.7945 17.96 12.8121 17.9688 12.8336 17.9688C12.855 17.9688 12.8726 17.9775 12.8726 17.9883C12.8726 17.999 12.899 18.0078 12.9312 18.0078C12.9634 18.0078 12.9898 18.0166 12.9898 18.0273C12.9898 18.0381 13.0074 18.0469 13.0289 18.0469C13.0504 18.0469 13.0679 18.0557 13.0679 18.0664C13.0679 18.0771 13.0855 18.0859 13.107 18.0859C13.1285 18.0859 13.1461 18.0947 13.1461 18.1055C13.1461 18.1162 13.1724 18.125 13.2047 18.125C13.2369 18.125 13.2632 18.1338 13.2632 18.1445C13.2632 18.1553 13.2808 18.1641 13.3023 18.1641C13.3238 18.1641 13.3414 18.1729 13.3414 18.1836C13.3414 18.1943 13.3677 18.2031 13.4 18.2031C13.4322 18.2031 13.4586 18.2119 13.4586 18.2227C13.4586 18.2334 13.4849 18.2422 13.5172 18.2422C13.5494 18.2422 13.5757 18.251 13.5757 18.2617C13.5757 18.2725 13.6109 18.2812 13.6539 18.2812C13.6968 18.2812 13.732 18.29 13.732 18.3008C13.732 18.3115 13.7584 18.3203 13.7906 18.3203C13.8228 18.3203 13.8492 18.3291 13.8492 18.3398C13.8492 18.3506 13.8843 18.3594 13.9273 18.3594C13.9703 18.3594 14.0054 18.3682 14.0054 18.3789C14.0054 18.3896 14.0494 18.3984 14.1031 18.3984C14.1568 18.3984 14.2007 18.4072 14.2007 18.418C14.2007 18.4288 14.2528 18.4375 14.3179 18.4375C14.383 18.4375 14.4351 18.4462 14.4351 18.457C14.4351 18.4684 14.5002 18.4766 14.5914 18.4766C14.6825 18.4766 14.7476 18.4847 14.7476 18.4961C14.7476 18.5087 14.9755 18.5156 15.3922 18.5156C15.8088 18.5156 16.0367 18.5087 16.0367 18.4961C16.0367 18.4849 16.0953 18.4766 16.1734 18.4766C16.2515 18.4766 16.3101 18.4682 16.3101 18.457C16.3101 18.4462 16.3622 18.4375 16.4273 18.4375C16.4924 18.4375 16.5445 18.4288 16.5445 18.418C16.5445 18.4072 16.5884 18.3984 16.6422 18.3984C16.6959 18.3984 16.7398 18.3896 16.7398 18.3789C16.7398 18.3682 16.775 18.3594 16.8179 18.3594C16.8609 18.3594 16.8961 18.3506 16.8961 18.3398C16.8961 18.3291 16.9312 18.3203 16.9742 18.3203C17.0172 18.3203 17.0523 18.3115 17.0523 18.3008C17.0523 18.29 17.0787 18.2812 17.1109 18.2812C17.1431 18.2812 17.1695 18.2725 17.1695 18.2617C17.1695 18.251 17.1959 18.2422 17.2281 18.2422C17.2603 18.2422 17.2867 18.2334 17.2867 18.2227C17.2867 18.2119 17.3043 18.2031 17.3257 18.2031C17.3472 18.2031 17.3648 18.1943 17.3648 18.1836C17.3648 18.1729 17.3912 18.1641 17.4234 18.1641C17.4556 18.1641 17.482 18.1553 17.482 18.1445C17.482 18.1338 17.5084 18.125 17.5406 18.125C17.5728 18.125 17.5992 18.1162 17.5992 18.1055C17.5992 18.0947 17.6168 18.0859 17.6382 18.0859C17.6597 18.0859 17.6773 18.0771 17.6773 18.0664C17.6773 18.0557 17.6949 18.0469 17.7164 18.0469C17.7379 18.0469 17.7554 18.0381 17.7554 18.0273C17.7554 18.0166 17.7818 18.0078 17.814 18.0078C17.8463 18.0078 17.8726 17.999 17.8726 17.9883C17.8726 17.9775 17.8902 17.9688 17.9117 17.9688C17.9332 17.9688 17.9507 17.96 17.9507 17.9492C17.9507 17.9385 17.9683 17.9297 17.9898 17.9297C18.0113 17.9297 18.0289 17.9209 18.0289 17.9102C18.0289 17.8994 18.0464 17.8906 18.0679 17.8906C18.0894 17.8906 18.107 17.8818 18.107 17.8711C18.107 17.8604 18.1226 17.8516 18.1417 17.8516C18.1609 17.8516 18.1892 17.834 18.2047 17.8125C18.2201 17.791 18.2484 17.7734 18.2676 17.7734C18.2867 17.7734 18.3023 17.7646 18.3023 17.7539C18.3023 17.7432 18.3199 17.7344 18.3414 17.7344C18.3629 17.7344 18.3804 17.7256 18.3804 17.7148C18.3804 17.7041 18.3961 17.6953 18.4152 17.6953C18.4343 17.6953 18.4626 17.6777 18.4781 17.6562C18.4936 17.6348 18.5199 17.6172 18.5367 17.6172C18.5534 17.6172 18.5798 17.5996 18.5953 17.5781C18.6108 17.5566 18.6371 17.5391 18.6539 17.5391C18.6706 17.5391 18.697 17.5215 18.7125 17.5C18.728 17.4785 18.7527 17.4609 18.7675 17.4609C18.7823 17.4609 18.8191 17.4346 18.8492 17.4023C18.8793 17.3701 18.9141 17.3438 18.9266 17.3438C18.9391 17.3438 18.9922 17.2998 19.0445 17.2461C19.0968 17.1924 19.149 17.1484 19.1606 17.1484C19.1881 17.1484 19.7476 16.5887 19.7476 16.5611C19.7476 16.5495 19.7828 16.5061 19.8257 16.4648C19.8687 16.4236 19.9039 16.3796 19.9039 16.3672C19.9039 16.3548 19.939 16.3108 19.982 16.2695C20.025 16.2282 20.0601 16.1806 20.0601 16.1636C20.0601 16.1467 20.0689 16.1328 20.0797 16.1328C20.0904 16.1328 20.0992 16.1172 20.0992 16.0981C20.0992 16.0789 20.1168 16.0506 20.1382 16.0352C20.1597 16.0197 20.1773 15.9933 20.1773 15.9766C20.1773 15.9598 20.1949 15.9335 20.2164 15.918C20.2379 15.9025 20.2554 15.8761 20.2554 15.8594C20.2554 15.8426 20.273 15.8163 20.2945 15.8008C20.316 15.7853 20.3336 15.757 20.3336 15.7379C20.3336 15.7188 20.3423 15.7031 20.3531 15.7031C20.3638 15.7031 20.3726 15.6855 20.3726 15.6641C20.3726 15.6426 20.3814 15.625 20.3922 15.625C20.4029 15.625 20.4117 15.6074 20.4117 15.5859C20.4117 15.5645 20.4205 15.5469 20.4312 15.5469C20.442 15.5469 20.4507 15.5293 20.4507 15.5078C20.4507 15.4863 20.4595 15.4688 20.4703 15.4688C20.481 15.4688 20.4898 15.4512 20.4898 15.4297C20.4898 15.4082 20.4986 15.3906 20.5093 15.3906C20.5201 15.3906 20.5289 15.373 20.5289 15.3516C20.5289 15.3301 20.5377 15.3125 20.5484 15.3125C20.5591 15.3125 20.5679 15.2949 20.5679 15.2734C20.5679 15.252 20.5767 15.2344 20.5875 15.2344C20.5982 15.2344 20.607 15.208 20.607 15.1758C20.607 15.1436 20.6158 15.1172 20.6265 15.1172C20.6373 15.1172 20.6461 15.0996 20.6461 15.0781C20.6461 15.0566 20.6548 15.0391 20.6656 15.0391C20.6763 15.0391 20.6851 15.0127 20.6851 14.9805C20.6851 14.9482 20.6939 14.9219 20.7047 14.9219C20.7154 14.9219 20.7242 14.9043 20.7242 14.8828C20.7242 14.8613 20.733 14.8438 20.7437 14.8438C20.7545 14.8438 20.7632 14.8086 20.7632 14.7656C20.7632 14.7227 20.772 14.6875 20.7828 14.6875C20.7935 14.6875 20.8023 14.6523 20.8023 14.6094C20.8023 14.5664 20.8111 14.5312 20.8218 14.5312C20.8326 14.5312 20.8414 14.5049 20.8414 14.4727C20.8414 14.4404 20.8502 14.4141 20.8609 14.4141C20.8716 14.4141 20.8804 14.3701 20.8804 14.3164C20.8804 14.2627 20.8892 14.2188 20.9 14.2188C20.9108 14.2188 20.9195 14.1667 20.9195 14.1016C20.9195 14.0365 20.9282 13.9844 20.939 13.9844C20.9506 13.9844 20.9586 13.9128 20.9586 13.8086C20.9586 13.7044 20.9665 13.6328 20.9781 13.6328C20.9905 13.6328 20.9976 13.4831 20.9976 13.2227C20.9976 12.9622 20.9905 12.8125 20.9781 12.8125C20.9667 12.8125 20.9586 12.7474 20.9586 12.6562C20.9586 12.5651 20.9504 12.5 20.939 12.5C20.9282 12.5 20.9195 12.4479 20.9195 12.3828C20.9195 12.3177 20.9108 12.2656 20.9 12.2656C20.8892 12.2656 20.8804 12.2305 20.8804 12.1875C20.8804 12.1445 20.8716 12.1094 20.8609 12.1094C20.8502 12.1094 20.8414 12.0742 20.8414 12.0312C20.8414 11.9883 20.8326 11.9531 20.8218 11.9531C20.8111 11.9531 20.8023 11.918 20.8023 11.875C20.8023 11.832 20.7935 11.7969 20.7828 11.7969C20.772 11.7969 20.7632 11.7705 20.7632 11.7383C20.7632 11.7061 20.7545 11.6797 20.7437 11.6797C20.733 11.6797 20.7242 11.6621 20.7242 11.6406C20.7242 11.6191 20.7154 11.6016 20.7047 11.6016C20.6939 11.6016 20.6851 11.5752 20.6851 11.543C20.6851 11.5107 20.6763 11.4844 20.6656 11.4844C20.6548 11.4844 20.6461 11.458 20.6461 11.4258C20.6461 11.3936 20.6373 11.3672 20.6265 11.3672C20.6158 11.3672 20.607 11.3496 20.607 11.3281C20.607 11.3066 20.5982 11.2891 20.5875 11.2891C20.5767 11.2891 20.5679 11.2715 20.5679 11.25C20.5679 11.2285 20.5591 11.2109 20.5484 11.2109C20.5377 11.2109 20.5289 11.1934 20.5289 11.1719C20.5289 11.1504 20.5201 11.1328 20.5093 11.1328C20.4986 11.1328 20.4898 11.1152 20.4898 11.0938C20.4898 11.0723 20.481 11.0547 20.4703 11.0547C20.4595 11.0547 20.4507 11.0371 20.4507 11.0156C20.4507 10.9941 20.442 10.9766 20.4312 10.9766C20.4205 10.9766 20.4117 10.959 20.4117 10.9375C20.4117 10.916 20.4029 10.8984 20.3922 10.8984C20.3814 10.8984 20.3726 10.8809 20.3726 10.8594C20.3726 10.8379 20.3638 10.8203 20.3531 10.8203C20.3423 10.8203 20.3336 10.8047 20.3336 10.7856C20.3336 10.7664 20.316 10.7381 20.2945 10.7227C20.273 10.7072 20.2554 10.6808 20.2554 10.6641C20.2554 10.6473 20.2379 10.621 20.2164 10.6055C20.1949 10.59 20.1773 10.5617 20.1773 10.5426C20.1773 10.5235 20.1685 10.5078 20.1578 10.5078C20.1466 10.5078 20.1382 10.4492 20.1382 10.3711C20.1382 10.293 20.1466 10.2344 20.1578 10.2344C20.1692 10.2344 20.1773 10.1693 20.1773 10.0781C20.1773 9.98697 20.1855 9.92188 20.1968 9.92188C20.209 9.92188 20.2164 9.81119 20.2164 9.62891C20.2164 9.44662 20.2238 9.33594 20.2359 9.33594C20.2481 9.33594 20.2554 9.21875 20.2554 9.02344C20.2554 8.82812 20.2481 8.71094 20.2359 8.71094C20.224 8.71094 20.2164 8.61979 20.2164 8.47656C20.2164 8.33334 20.2088 8.24219 20.1968 8.24219C20.1855 8.24219 20.1773 8.17709 20.1773 8.08594C20.1773 7.99479 20.1692 7.92969 20.1578 7.92969C20.1469 7.92969 20.1382 7.8776 20.1382 7.8125C20.1382 7.7474 20.1296 7.69531 20.1187 7.69531C20.108 7.69531 20.0992 7.65137 20.0992 7.59766C20.0992 7.54395 20.0904 7.5 20.0797 7.5C20.0689 7.5 20.0601 7.45605 20.0601 7.40234C20.0601 7.34863 20.0513 7.30469 20.0406 7.30469C20.0298 7.30469 20.0211 7.26953 20.0211 7.22656C20.0211 7.18359 20.0123 7.14844 20.0015 7.14844C19.9908 7.14844 19.982 7.11328 19.982 7.07031C19.982 7.02734 19.9732 6.99219 19.9625 6.99219C19.9517 6.99219 19.9429 6.96582 19.9429 6.93359C19.9429 6.90137 19.9341 6.875 19.9234 6.875C19.9127 6.875 19.9039 6.84863 19.9039 6.81641C19.9039 6.78418 19.8951 6.75781 19.8843 6.75781C19.8736 6.75781 19.8648 6.72266 19.8648 6.67969C19.8648 6.63672 19.856 6.60156 19.8453 6.60156C19.8345 6.60156 19.8257 6.58398 19.8257 6.5625C19.8257 6.54102 19.817 6.52344 19.8062 6.52344C19.7955 6.52344 19.7867 6.49707 19.7867 6.46484C19.7867 6.43262 19.7779 6.40625 19.7672 6.40625C19.7564 6.40625 19.7476 6.37988 19.7476 6.34766C19.7476 6.31543 19.7388 6.28906 19.7281 6.28906C19.7173 6.28906 19.7086 6.27148 19.7086 6.25C19.7086 6.22852 19.6998 6.21094 19.689 6.21094C19.6783 6.21094 19.6695 6.18457 19.6695 6.15234C19.6695 6.12012 19.6607 6.09375 19.65 6.09375C19.6392 6.09375 19.6304 6.07617 19.6304 6.05469C19.6304 6.0332 19.6216 6.01562 19.6109 6.01562C19.6002 6.01562 19.5914 5.99805 19.5914 5.97656C19.5914 5.95508 19.5826 5.9375 19.5718 5.9375C19.5611 5.9375 19.5523 5.91992 19.5523 5.89844C19.5523 5.87695 19.5435 5.85938 19.5328 5.85938C19.522 5.85938 19.5132 5.83301 19.5132 5.80078C19.5132 5.76855 19.5045 5.74219 19.4937 5.74219C19.483 5.74219 19.4742 5.72461 19.4742 5.70312C19.4742 5.68164 19.4654 5.66406 19.4547 5.66406C19.4439 5.66406 19.4351 5.64648 19.4351 5.625C19.4351 5.60352 19.4263 5.58594 19.4156 5.58594C19.4048 5.58594 19.3961 5.56836 19.3961 5.54688C19.3961 5.52539 19.3873 5.50781 19.3765 5.50781C19.3658 5.50781 19.357 5.49217 19.357 5.47307C19.357 5.45395 19.3394 5.42564 19.3179 5.41016C19.2964 5.39467 19.2789 5.36637 19.2789 5.34725C19.2789 5.32814 19.2701 5.3125 19.2593 5.3125C19.2486 5.3125 19.2398 5.29492 19.2398 5.27344C19.2398 5.25195 19.231 5.23438 19.2203 5.23438C19.2095 5.23438 19.2007 5.21873 19.2007 5.19963C19.2007 5.18051 19.1832 5.15221 19.1617 5.13672C19.1402 5.12123 19.1226 5.09293 19.1226 5.07381C19.1226 5.05471 19.1138 5.03906 19.1031 5.03906C19.0923 5.03906 19.0836 5.02342 19.0836 5.00432C19.0836 4.9852 19.066 4.95689 19.0445 4.94141C19.023 4.92592 19.0054 4.89955 19.0054 4.88281C19.0054 4.86607 18.9879 4.83971 18.9664 4.82422C18.9449 4.80873 18.9273 4.78236 18.9273 4.76562C18.9273 4.74889 18.9097 4.72252 18.8882 4.70703C18.8668 4.69154 18.8492 4.66518 18.8492 4.64844C18.8492 4.6317 18.8316 4.60533 18.8101 4.58984C18.7886 4.57436 18.7711 4.54799 18.7711 4.53125C18.7711 4.51451 18.7535 4.48814 18.732 4.47266C18.7105 4.45717 18.6929 4.43258 18.6929 4.41799C18.6929 4.4034 18.6578 4.3577 18.6148 4.31641C18.5718 4.27512 18.5367 4.231 18.5367 4.21836C18.5367 4.2057 18.5103 4.17072 18.4781 4.14062C18.4459 4.11053 18.4195 4.07574 18.4195 4.06334C18.4195 4.05096 18.3668 3.98904 18.3023 3.92578C18.2379 3.86252 18.1851 3.80143 18.1851 3.79002C18.1851 3.76291 17.4691 3.04688 17.442 3.04688C17.4306 3.04688 17.3695 2.99414 17.3062 2.92969C17.243 2.86523 17.1812 2.8125 17.169 2.8125C17.1569 2.8125 17.1131 2.77734 17.0718 2.73438C17.0306 2.69141 16.9864 2.65625 16.9738 2.65625C16.9611 2.65625 16.9262 2.62988 16.8961 2.59766C16.866 2.56543 16.8308 2.53906 16.8179 2.53906C16.8051 2.53906 16.7699 2.5127 16.7398 2.48047C16.7097 2.44824 16.673 2.42188 16.6582 2.42188C16.6434 2.42188 16.6186 2.4043 16.6031 2.38281C16.5876 2.36133 16.5612 2.34375 16.5445 2.34375C16.5278 2.34375 16.5014 2.32617 16.4859 2.30469C16.4704 2.2832 16.444 2.26562 16.4273 2.26562C16.4106 2.26562 16.3842 2.24805 16.3687 2.22656C16.3532 2.20508 16.3269 2.1875 16.3101 2.1875C16.2934 2.1875 16.267 2.16992 16.2515 2.14844C16.236 2.12695 16.2097 2.10938 16.1929 2.10938C16.1762 2.10938 16.1498 2.0918 16.1343 2.07031C16.1188 2.04883 16.0905 2.03125 16.0714 2.03125C16.0523 2.03125 16.0367 2.02246 16.0367 2.01172C16.0367 2.00098 16.021 1.99219 16.0019 1.99219C15.9828 1.99219 15.9545 1.97461 15.939 1.95312C15.9235 1.93164 15.8952 1.91406 15.8761 1.91406C15.857 1.91406 15.8414 1.90527 15.8414 1.89453C15.8414 1.88379 15.8238 1.875 15.8023 1.875C15.7808 1.875 15.7632 1.86621 15.7632 1.85547C15.7632 1.84473 15.7457 1.83594 15.7242 1.83594C15.7027 1.83594 15.6851 1.82715 15.6851 1.81641C15.6851 1.80566 15.6675 1.79688 15.6461 1.79688C15.6246 1.79688 15.607 1.78809 15.607 1.77734C15.607 1.7666 15.5894 1.75781 15.5679 1.75781C15.5464 1.75781 15.5289 1.74902 15.5289 1.73828C15.5289 1.72754 15.5132 1.71875 15.4941 1.71875C15.475 1.71875 15.4467 1.70117 15.4312 1.67969C15.4147 1.65676 15.3806 1.64062 15.3488 1.64062C15.3189 1.64062 15.2945 1.63184 15.2945 1.62109C15.2945 1.61035 15.2769 1.60156 15.2554 1.60156C15.2339 1.60156 15.2164 1.59277 15.2164 1.58203C15.2164 1.57129 15.1988 1.5625 15.1773 1.5625C15.1558 1.5625 15.1382 1.55371 15.1382 1.54297C15.1382 1.53223 15.1207 1.52344 15.0992 1.52344C15.0777 1.52344 15.0601 1.51465 15.0601 1.50391C15.0601 1.49316 15.0425 1.48438 15.0211 1.48438C14.9996 1.48438 14.982 1.47559 14.982 1.46484C14.982 1.4541 14.9556 1.44531 14.9234 1.44531C14.8912 1.44531 14.8648 1.43652 14.8648 1.42578C14.8648 1.41504 14.8472 1.40625 14.8257 1.40625C14.8043 1.40625 14.7867 1.39746 14.7867 1.38672C14.7867 1.37598 14.7691 1.36719 14.7476 1.36719C14.7261 1.36719 14.7086 1.3584 14.7086 1.34766C14.7086 1.33691 14.6822 1.32812 14.65 1.32812C14.6177 1.32812 14.5914 1.31934 14.5914 1.30859C14.5914 1.29785 14.565 1.28906 14.5328 1.28906C14.5005 1.28906 14.4742 1.28027 14.4742 1.26953C14.4742 1.25879 14.4566 1.25 14.4351 1.25C14.4136 1.25 14.3961 1.24121 14.3961 1.23047C14.3961 1.21973 14.3697 1.21094 14.3375 1.21094C14.3052 1.21094 14.2789 1.20215 14.2789 1.19141C14.2789 1.18066 14.2525 1.17188 14.2203 1.17188C14.188 1.17188 14.1617 1.16309 14.1617 1.15234C14.1617 1.1416 14.1353 1.13281 14.1031 1.13281C14.0709 1.13281 14.0445 1.12402 14.0445 1.11328C14.0445 1.10254 14.0181 1.09375 13.9859 1.09375C13.9537 1.09375 13.9273 1.08496 13.9273 1.07422C13.9273 1.06348 13.9009 1.05469 13.8687 1.05469C13.8365 1.05469 13.8101 1.0459 13.8101 1.03516C13.8101 1.02441 13.775 1.01562 13.732 1.01562C13.689 1.01562 13.6539 1.00684 13.6539 0.996094C13.6539 0.985352 13.6187 0.976562 13.5757 0.976562C13.5328 0.976562 13.4976 0.967773 13.4976 0.957031C13.4976 0.946289 13.4713 0.9375 13.439 0.9375C13.4068 0.9375 13.3804 0.928711 13.3804 0.917969C13.3804 0.907227 13.3365 0.898438 13.2828 0.898438C13.2291 0.898438 13.1851 0.889648 13.1851 0.878906C13.1851 0.868164 13.1412 0.859375 13.0875 0.859375C13.0338 0.859375 12.9898 0.850586 12.9898 0.839844C12.9898 0.829102 12.9459 0.820312 12.8922 0.820312C12.8384 0.820312 12.7945 0.811523 12.7945 0.800781C12.7945 0.789922 12.7424 0.78125 12.6773 0.78125C12.6122 0.78125 12.5601 0.772578 12.5601 0.761719C12.5601 0.750566 12.5015 0.742188 12.4234 0.742188C12.3453 0.742188 12.2867 0.733809 12.2867 0.722656C12.2867 0.711074 12.2151 0.703125 12.1109 0.703125C12.0067 0.703125 11.9351 0.695176 11.9351 0.683594C11.9351 0.671191 11.7854 0.664062 11.525 0.664062C11.2646 0.664062 11.1148 0.656934 11.1148 0.644531C11.1148 0.633789 11.0709 0.625 11.0172 0.625C10.9634 0.625 10.9195 0.633789 10.9195 0.644531C10.9195 0.656934 10.7697 0.664062 10.5093 0.664062C10.2489 0.664062 10.0992 0.671191 10.0992 0.683594C10.0992 0.695176 10.0276 0.703125 9.9234 0.703125C9.81924 0.703125 9.74762 0.711074 9.74762 0.722656C9.74762 0.733516 9.69553 0.742188 9.63043 0.742188C9.56533 0.742188 9.51324 0.733516 9.51324 0.722656C9.51324 0.711914 9.49567 0.703125 9.47418 0.703125C9.4527 0.703125 9.43512 0.694336 9.43512 0.683594C9.43512 0.672852 9.41754 0.664062 9.39606 0.664062C9.37457 0.664062 9.35699 0.655273 9.35699 0.644531C9.35699 0.633789 9.33942 0.625 9.31793 0.625C9.29645 0.625 9.27887 0.616211 9.27887 0.605469C9.27887 0.594727 9.26129 0.585938 9.23981 0.585938C9.21832 0.585938 9.20074 0.577148 9.20074 0.566406C9.20074 0.555664 9.18317 0.546875 9.16168 0.546875C9.1402 0.546875 9.12262 0.538086 9.12262 0.527344C9.12262 0.516602 9.09625 0.507812 9.06403 0.507812C9.0318 0.507812 9.00543 0.499023 9.00543 0.488281C9.00543 0.477539 8.98785 0.46875 8.96637 0.46875C8.94489 0.46875 8.92731 0.459961 8.92731 0.449219C8.92731 0.438477 8.90973 0.429688 8.88824 0.429688C8.86676 0.429688 8.84918 0.420898 8.84918 0.410156C8.84918 0.399414 8.82281 0.390625 8.79059 0.390625C8.75836 0.390625 8.73199 0.381836 8.73199 0.371094C8.73199 0.360352 8.70563 0.351562 8.6734 0.351562C8.64117 0.351562 8.61481 0.342773 8.61481 0.332031C8.61481 0.321289 8.59723 0.3125 8.57574 0.3125C8.55426 0.3125 8.53668 0.303711 8.53668 0.292969C8.53668 0.282227 8.51031 0.273438 8.47809 0.273438C8.44586 0.273438 8.41949 0.264648 8.41949 0.253906C8.41949 0.243164 8.38434 0.234375 8.34137 0.234375C8.2984 0.234375 8.26324 0.225586 8.26324 0.214844C8.26324 0.204102 8.23688 0.195312 8.20465 0.195312C8.17242 0.195312 8.14606 0.186523 8.14606 0.175781C8.14606 0.165039 8.10211 0.15625 8.0484 0.15625C7.99469 0.15625 7.95074 0.147461 7.95074 0.136719C7.95074 0.125977 7.91559 0.117188 7.87262 0.117188C7.82965 0.117188 7.79449 0.108398 7.79449 0.0976562C7.79449 0.0867969 7.7424 0.078125 7.67731 0.078125C7.61221 0.078125 7.56012 0.0694531 7.56012 0.0585938C7.56012 0.047207 7.49502 0.0390625 7.40387 0.0390625C7.31272 0.0390625 7.24762 0.030918 7.24762 0.0195312C7.24762 0.00691406 7.01975 0 6.60309 0C6.18643 0 5.95856 0.00691406 5.95856 0.0195312ZM11.7007 3.69141C11.7007 3.70312 11.7789 3.71094 11.8961 3.71094C12.0132 3.71094 12.0914 3.71875 12.0914 3.73047C12.0914 3.74133 12.1435 3.75 12.2086 3.75C12.2737 3.75 12.3257 3.75867 12.3257 3.76953C12.3257 3.78039 12.3778 3.78906 12.4429 3.78906C12.508 3.78906 12.5601 3.79773 12.5601 3.80859C12.5601 3.81934 12.5953 3.82812 12.6382 3.82812C12.6812 3.82812 12.7164 3.83691 12.7164 3.84766C12.7164 3.8584 12.7603 3.86719 12.814 3.86719C12.8677 3.86719 12.9117 3.87598 12.9117 3.88672C12.9117 3.89746 12.938 3.90625 12.9703 3.90625C13.0025 3.90625 13.0289 3.91504 13.0289 3.92578C13.0289 3.93652 13.0552 3.94531 13.0875 3.94531C13.1197 3.94531 13.1461 3.9541 13.1461 3.96484C13.1461 3.97559 13.1724 3.98438 13.2047 3.98438C13.2369 3.98438 13.2632 3.99316 13.2632 4.00391C13.2632 4.01465 13.2896 4.02344 13.3218 4.02344C13.3541 4.02344 13.3804 4.03223 13.3804 4.04297C13.3804 4.05371 13.4068 4.0625 13.439 4.0625C13.4713 4.0625 13.4976 4.07129 13.4976 4.08203C13.4976 4.09277 13.5152 4.10156 13.5367 4.10156C13.5582 4.10156 13.5757 4.11035 13.5757 4.12109C13.5757 4.13184 13.5933 4.14062 13.6148 4.14062C13.6363 4.14062 13.6539 4.14941 13.6539 4.16016C13.6539 4.1709 13.6783 4.17969 13.7081 4.17969C13.74 4.17969 13.774 4.19582 13.7906 4.21875C13.8061 4.24023 13.8344 4.25781 13.8535 4.25781C13.8726 4.25781 13.8882 4.2666 13.8882 4.27734C13.8882 4.28809 13.9058 4.29688 13.9273 4.29688C13.9488 4.29688 13.9664 4.30566 13.9664 4.31641C13.9664 4.32715 13.9839 4.33594 14.0054 4.33594C14.0269 4.33594 14.0445 4.34473 14.0445 4.35547C14.0445 4.36621 14.0621 4.375 14.0836 4.375C14.105 4.375 14.1226 4.38379 14.1226 4.39453C14.1226 4.40527 14.1383 4.41406 14.1574 4.41406C14.1765 4.41406 14.2048 4.43164 14.2203 4.45312C14.2358 4.47461 14.2621 4.49219 14.2789 4.49219C14.2956 4.49219 14.322 4.50977 14.3375 4.53125C14.353 4.55273 14.3774 4.57031 14.3919 4.57031C14.4063 4.57031 14.4609 4.61426 14.5132 4.66797C14.5656 4.72168 14.6179 4.76562 14.6295 4.76562C14.6572 4.76562 14.9429 5.05162 14.9429 5.07934C14.9429 5.09109 14.9781 5.13449 15.0211 5.17578C15.064 5.21707 15.0992 5.26119 15.0992 5.27383C15.0992 5.28648 15.1255 5.32147 15.1578 5.35156C15.19 5.38166 15.2164 5.42035 15.2164 5.43752C15.2164 5.45471 15.2252 5.46875 15.2359 5.46875C15.2466 5.46875 15.2554 5.48633 15.2554 5.50781C15.2554 5.5293 15.2642 5.54688 15.275 5.54688C15.2857 5.54688 15.2945 5.56445 15.2945 5.58594C15.2945 5.60742 15.3033 5.625 15.314 5.625C15.3248 5.625 15.3336 5.65137 15.3336 5.68359C15.3336 5.71582 15.3423 5.74219 15.3531 5.74219C15.3638 5.74219 15.3726 5.77734 15.3726 5.82031C15.3726 5.86328 15.3814 5.89844 15.3922 5.89844C15.4029 5.89844 15.4117 5.93359 15.4117 5.97656C15.4117 6.01953 15.4205 6.05469 15.4312 6.05469C15.4429 6.05469 15.4507 6.13281 15.4507 6.25C15.4507 6.36719 15.4429 6.44531 15.4312 6.44531C15.4205 6.44531 15.4117 6.47168 15.4117 6.50391C15.4117 6.53613 15.4029 6.5625 15.3922 6.5625C15.3814 6.5625 15.3726 6.58693 15.3726 6.61678C15.3726 6.64865 15.3565 6.68268 15.3336 6.69922C15.3121 6.71471 15.2945 6.7393 15.2945 6.75389C15.2945 6.76848 15.2593 6.81418 15.2164 6.85547C15.1734 6.89676 15.1382 6.94439 15.1382 6.96137C15.1382 6.97832 15.1242 6.99219 15.107 6.99219C15.0898 6.99219 15.0512 7.01855 15.0211 7.05078C14.991 7.08301 14.9523 7.10938 14.9351 7.10938C14.9179 7.10938 14.9039 7.11816 14.9039 7.12891C14.9039 7.13965 14.8882 7.14844 14.8691 7.14844C14.85 7.14844 14.8217 7.16602 14.8062 7.1875C14.7897 7.21043 14.7556 7.22656 14.7238 7.22656C14.6939 7.22656 14.6695 7.23535 14.6695 7.24609C14.6695 7.25684 14.6255 7.26562 14.5718 7.26562C14.5181 7.26562 14.4742 7.27441 14.4742 7.28516C14.4742 7.29688 14.3961 7.30469 14.2789 7.30469C14.1617 7.30469 14.0836 7.29688 14.0836 7.28516C14.0836 7.27441 14.0484 7.26562 14.0054 7.26562C13.9625 7.26562 13.9273 7.25684 13.9273 7.24609C13.9273 7.23535 13.9009 7.22656 13.8687 7.22656C13.8365 7.22656 13.8101 7.21777 13.8101 7.20703C13.8101 7.19629 13.7925 7.1875 13.7711 7.1875C13.7496 7.1875 13.732 7.17871 13.732 7.16797C13.732 7.15723 13.7164 7.14844 13.6972 7.14844C13.6781 7.14844 13.6498 7.13086 13.6343 7.10938C13.6188 7.08789 13.5948 7.07031 13.5808 7.07031C13.5478 7.07031 13.3023 6.8248 13.3023 6.79178C13.3023 6.77785 13.2847 6.75377 13.2632 6.73828C13.2418 6.72279 13.2242 6.69801 13.2242 6.6832C13.2242 6.66842 13.1978 6.63166 13.1656 6.60156C13.1334 6.57147 13.107 6.53471 13.107 6.51992C13.107 6.50512 13.0894 6.48033 13.0679 6.46484C13.0464 6.44936 13.0289 6.42105 13.0289 6.40193C13.0289 6.38283 13.0201 6.36719 13.0093 6.36719C12.9986 6.36719 12.9898 6.35154 12.9898 6.33244C12.9898 6.31332 12.9722 6.28502 12.9507 6.26953C12.9293 6.25404 12.9117 6.22926 12.9117 6.21445C12.9117 6.19967 12.8853 6.16291 12.8531 6.13281C12.8209 6.10272 12.7945 6.0683 12.7945 6.05635C12.7945 6.02822 12.4698 5.70312 12.4417 5.70312C12.4299 5.70312 12.3866 5.66797 12.3453 5.625C12.304 5.58203 12.2564 5.54688 12.2394 5.54688C12.2224 5.54688 12.2086 5.53809 12.2086 5.52734C12.2086 5.5166 12.191 5.50781 12.1695 5.50781C12.148 5.50781 12.1304 5.49902 12.1304 5.48828C12.1304 5.47754 12.1129 5.46875 12.0914 5.46875C12.0699 5.46875 12.0523 5.45996 12.0523 5.44922C12.0523 5.43848 12.0259 5.42969 11.9937 5.42969C11.9615 5.42969 11.9351 5.4209 11.9351 5.41016C11.9351 5.39941 11.9088 5.39062 11.8765 5.39062C11.8443 5.39062 11.8179 5.38184 11.8179 5.37109C11.8179 5.36035 11.7828 5.35156 11.7398 5.35156C11.6968 5.35156 11.6617 5.34277 11.6617 5.33203C11.6617 5.32088 11.6031 5.3125 11.525 5.3125C11.4468 5.3125 11.3882 5.30412 11.3882 5.29297C11.3882 5.28039 11.1799 5.27344 10.8023 5.27344C10.4247 5.27344 10.2164 5.28039 10.2164 5.29297C10.2164 5.30412 10.1578 5.3125 10.0797 5.3125C10.0015 5.3125 9.94293 5.32088 9.94293 5.33203C9.94293 5.34277 9.91656 5.35156 9.88434 5.35156C9.85211 5.35156 9.82574 5.36035 9.82574 5.37109C9.82574 5.38184 9.79059 5.39062 9.74762 5.39062C9.70465 5.39062 9.66949 5.39941 9.66949 5.41016C9.66949 5.4209 9.64313 5.42969 9.6109 5.42969C9.57867 5.42969 9.55231 5.43848 9.55231 5.44922C9.55231 5.45996 9.53473 5.46875 9.51324 5.46875C9.49176 5.46875 9.47418 5.47754 9.47418 5.48828C9.47418 5.49902 9.44781 5.50781 9.41559 5.50781C9.38336 5.50781 9.35699 5.5166 9.35699 5.52734C9.35699 5.53809 9.33942 5.54688 9.31793 5.54688C9.29645 5.54688 9.27887 5.55566 9.27887 5.56641C9.27887 5.57715 9.26483 5.58594 9.24764 5.58594C9.23047 5.58594 9.19178 5.6123 9.16168 5.64453C9.13158 5.67676 9.09709 5.70312 9.08506 5.70312C9.05449 5.70312 8.84918 5.9115 8.84918 5.94254C8.84918 5.9565 8.8316 5.98061 8.81012 5.99609C8.78864 6.01158 8.77106 6.03988 8.77106 6.059C8.77106 6.07811 8.76227 6.09375 8.75153 6.09375C8.74078 6.09375 8.73199 6.11133 8.73199 6.13281C8.73199 6.1543 8.72321 6.17188 8.71246 6.17188C8.70172 6.17188 8.69293 6.20703 8.69293 6.25C8.69293 6.29297 8.68414 6.32812 8.6734 6.32812C8.66201 6.32812 8.65387 6.39322 8.65387 6.48438C8.65387 6.57553 8.66201 6.64062 8.6734 6.64062C8.68414 6.64062 8.69293 6.66699 8.69293 6.69922C8.69293 6.73145 8.70172 6.75781 8.71246 6.75781C8.72321 6.75781 8.73199 6.77992 8.73199 6.80695C8.73199 6.84205 8.77375 6.89785 8.87817 7.00227C8.95856 7.08266 9.03572 7.14844 9.04963 7.14844C9.06356 7.14844 9.0876 7.16602 9.10309 7.1875C9.11858 7.20898 9.14688 7.22656 9.166 7.22656C9.1851 7.22656 9.20074 7.23535 9.20074 7.24609C9.20074 7.25684 9.21832 7.26562 9.23981 7.26562C9.26129 7.26562 9.27887 7.27441 9.27887 7.28516C9.27887 7.2959 9.29645 7.30469 9.31793 7.30469C9.33942 7.30469 9.35699 7.31348 9.35699 7.32422C9.35699 7.33496 9.37457 7.34375 9.39606 7.34375C9.41754 7.34375 9.43512 7.35254 9.43512 7.36328C9.43512 7.37402 9.46149 7.38281 9.49371 7.38281C9.52594 7.38281 9.55231 7.3916 9.55231 7.40234C9.55231 7.41309 9.56989 7.42188 9.59137 7.42188C9.61285 7.42188 9.63043 7.43066 9.63043 7.44141C9.63043 7.45215 9.6568 7.46094 9.68903 7.46094C9.72125 7.46094 9.74762 7.46973 9.74762 7.48047C9.74762 7.49121 9.77399 7.5 9.80621 7.5C9.83844 7.5 9.86481 7.50879 9.86481 7.51953C9.86481 7.53027 9.89117 7.53906 9.9234 7.53906C9.95563 7.53906 9.98199 7.54785 9.98199 7.55859C9.98199 7.56934 10.0172 7.57812 10.0601 7.57812C10.1031 7.57812 10.1382 7.58691 10.1382 7.59766C10.1382 7.6084 10.1734 7.61719 10.2164 7.61719C10.2593 7.61719 10.2945 7.62598 10.2945 7.63672C10.2945 7.64746 10.3297 7.65625 10.3726 7.65625C10.4156 7.65625 10.4507 7.66504 10.4507 7.67578C10.4507 7.68652 10.4947 7.69531 10.5484 7.69531C10.6021 7.69531 10.6461 7.7041 10.6461 7.71484C10.6461 7.72559 10.6812 7.73438 10.7242 7.73438C10.7672 7.73438 10.8023 7.74316 10.8023 7.75391C10.8023 7.76465 10.8375 7.77344 10.8804 7.77344C10.9234 7.77344 10.9586 7.78223 10.9586 7.79297C10.9586 7.80371 11.0025 7.8125 11.0562 7.8125C11.1099 7.8125 11.1539 7.82129 11.1539 7.83203C11.1539 7.84277 11.189 7.85156 11.232 7.85156C11.275 7.85156 11.3101 7.86035 11.3101 7.87109C11.3101 7.88184 11.3453 7.89062 11.3882 7.89062C11.4312 7.89062 11.4664 7.89941 11.4664 7.91016C11.4664 7.9209 11.5103 7.92969 11.564 7.92969C11.6177 7.92969 11.6617 7.93848 11.6617 7.94922C11.6617 7.95996 11.6968 7.96875 11.7398 7.96875C11.7828 7.96875 11.8179 7.97754 11.8179 7.98828C11.8179 7.99902 11.8531 8.00781 11.8961 8.00781C11.939 8.00781 11.9742 8.0166 11.9742 8.02734C11.9742 8.03809 12.0093 8.04688 12.0523 8.04688C12.0953 8.04688 12.1304 8.05566 12.1304 8.06641C12.1304 8.07715 12.1744 8.08594 12.2281 8.08594C12.2818 8.08594 12.3257 8.09473 12.3257 8.10547C12.3257 8.11621 12.3609 8.125 12.4039 8.125C12.4468 8.125 12.482 8.13379 12.482 8.14453C12.482 8.15527 12.5172 8.16406 12.5601 8.16406C12.6031 8.16406 12.6382 8.17285 12.6382 8.18359C12.6382 8.19434 12.6822 8.20312 12.7359 8.20312C12.7896 8.20312 12.8336 8.21191 12.8336 8.22266C12.8336 8.2334 12.8687 8.24219 12.9117 8.24219C12.9547 8.24219 12.9898 8.25098 12.9898 8.26172C12.9898 8.27246 13.025 8.28125 13.0679 8.28125C13.1109 8.28125 13.1461 8.29004 13.1461 8.30078C13.1461 8.31152 13.1812 8.32031 13.2242 8.32031C13.2672 8.32031 13.3023 8.3291 13.3023 8.33984C13.3023 8.35059 13.3287 8.35938 13.3609 8.35938C13.3931 8.35938 13.4195 8.36816 13.4195 8.37891C13.4195 8.38965 13.4371 8.39844 13.4586 8.39844C13.48 8.39844 13.4976 8.40723 13.4976 8.41797C13.4976 8.42871 13.524 8.4375 13.5562 8.4375C13.5884 8.4375 13.6148 8.44629 13.6148 8.45703C13.6148 8.46777 13.6412 8.47656 13.6734 8.47656C13.7056 8.47656 13.732 8.48535 13.732 8.49609C13.732 8.50684 13.7496 8.51562 13.7711 8.51562C13.7925 8.51562 13.8101 8.52441 13.8101 8.53516C13.8101 8.5459 13.8365 8.55469 13.8687 8.55469C13.9009 8.55469 13.9273 8.56348 13.9273 8.57422C13.9273 8.58496 13.9449 8.59375 13.9664 8.59375C13.9879 8.59375 14.0054 8.60254 14.0054 8.61328C14.0054 8.62402 14.0318 8.63281 14.064 8.63281C14.0963 8.63281 14.1226 8.6416 14.1226 8.65234C14.1226 8.66309 14.1402 8.67188 14.1617 8.67188C14.1832 8.67188 14.2007 8.68066 14.2007 8.69141C14.2007 8.70215 14.2183 8.71094 14.2398 8.71094C14.2613 8.71094 14.2789 8.71973 14.2789 8.73047C14.2789 8.74121 14.2964 8.75 14.3179 8.75C14.3394 8.75 14.357 8.75879 14.357 8.76953C14.357 8.78027 14.3726 8.78906 14.3917 8.78906C14.4109 8.78906 14.4392 8.80664 14.4547 8.82812C14.4701 8.84961 14.4984 8.86719 14.5176 8.86719C14.5367 8.86719 14.5523 8.87598 14.5523 8.88672C14.5523 8.89746 14.5699 8.90625 14.5914 8.90625C14.6129 8.90625 14.6304 8.91504 14.6304 8.92578C14.6304 8.93652 14.6445 8.94531 14.6617 8.94531C14.6788 8.94531 14.7175 8.97168 14.7476 9.00391C14.7777 9.03613 14.8145 9.0625 14.8293 9.0625C14.8441 9.0625 14.8688 9.08008 14.8843 9.10156C14.8998 9.12305 14.9244 9.14062 14.939 9.14062C14.9536 9.14062 14.9993 9.17578 15.0406 9.21875C15.0819 9.26172 15.1253 9.29688 15.1371 9.29688C15.1651 9.29688 15.3726 9.50436 15.3726 9.53236C15.3726 9.54418 15.4078 9.58762 15.4507 9.62891C15.4937 9.6702 15.5289 9.7159 15.5289 9.73049C15.5289 9.74508 15.5464 9.76967 15.5679 9.78516C15.5894 9.80064 15.607 9.82701 15.607 9.84375C15.607 9.86049 15.6246 9.88686 15.6461 9.90234C15.6675 9.91783 15.6851 9.94613 15.6851 9.96525C15.6851 9.98436 15.6939 10 15.7047 10C15.7154 10 15.7242 10.0176 15.7242 10.0391C15.7242 10.0605 15.733 10.0781 15.7437 10.0781C15.7545 10.0781 15.7632 10.0957 15.7632 10.1172C15.7632 10.1387 15.772 10.1562 15.7828 10.1562C15.7935 10.1562 15.8023 10.1826 15.8023 10.2148C15.8023 10.2471 15.8111 10.2734 15.8218 10.2734C15.8326 10.2734 15.8414 10.3086 15.8414 10.3516C15.8414 10.3945 15.8502 10.4297 15.8609 10.4297C15.8716 10.4297 15.8804 10.4561 15.8804 10.4883C15.8804 10.5205 15.8892 10.5469 15.9 10.5469C15.9108 10.5469 15.9195 10.599 15.9195 10.6641C15.9195 10.7292 15.9282 10.7812 15.939 10.7812C15.9509 10.7812 15.9586 10.8659 15.9586 10.9961C15.9586 11.1263 15.9663 11.2109 15.9781 11.2109C15.9888 11.2109 15.9976 11.2461 15.9976 11.2891C15.9976 11.332 15.9888 11.3672 15.9781 11.3672C15.9662 11.3672 15.9586 11.4583 15.9586 11.6016C15.9586 11.7448 15.951 11.8359 15.939 11.8359C15.9283 11.8359 15.9195 11.8799 15.9195 11.9336C15.9195 11.9873 15.9107 12.0312 15.9 12.0312C15.8892 12.0312 15.8804 12.0664 15.8804 12.1094C15.8804 12.1523 15.8716 12.1875 15.8609 12.1875C15.8502 12.1875 15.8414 12.2139 15.8414 12.2461C15.8414 12.2783 15.8326 12.3047 15.8218 12.3047C15.8111 12.3047 15.8023 12.3311 15.8023 12.3633C15.8023 12.3955 15.7935 12.4219 15.7828 12.4219C15.772 12.4219 15.7632 12.4482 15.7632 12.4805C15.7632 12.5127 15.7545 12.5391 15.7437 12.5391C15.733 12.5391 15.7242 12.5566 15.7242 12.5781C15.7242 12.5996 15.7154 12.6172 15.7047 12.6172C15.6939 12.6172 15.6851 12.6348 15.6851 12.6562C15.6851 12.6777 15.6763 12.6953 15.6656 12.6953C15.6548 12.6953 15.6461 12.711 15.6461 12.7301C15.6461 12.7492 15.6285 12.7775 15.607 12.793C15.5855 12.8085 15.5679 12.8368 15.5679 12.8559C15.5679 12.875 15.5591 12.8906 15.5484 12.8906C15.5377 12.8906 15.5289 12.9063 15.5289 12.9254C15.5289 12.9445 15.5113 12.9728 15.4898 12.9883C15.4683 13.0038 15.4507 13.0282 15.4507 13.0427C15.4507 13.0571 15.4068 13.1117 15.3531 13.1641C15.2994 13.2164 15.2554 13.2687 15.2554 13.2802C15.2554 13.3079 14.8912 13.6719 14.8635 13.6719C14.8518 13.6719 14.8084 13.707 14.7672 13.75C14.7259 13.793 14.6802 13.8281 14.6656 13.8281C14.651 13.8281 14.6264 13.8457 14.6109 13.8672C14.5954 13.8887 14.569 13.9062 14.5523 13.9062C14.5356 13.9062 14.5092 13.9238 14.4937 13.9453C14.4782 13.9668 14.4519 13.9844 14.4351 13.9844C14.4184 13.9844 14.392 14.002 14.3765 14.0234C14.361 14.0449 14.3347 14.0625 14.3179 14.0625C14.3012 14.0625 14.2748 14.0801 14.2593 14.1016C14.2438 14.123 14.2155 14.1406 14.1964 14.1406C14.1773 14.1406 14.1617 14.1494 14.1617 14.1602C14.1617 14.1709 14.1441 14.1797 14.1226 14.1797C14.1011 14.1797 14.0836 14.1885 14.0836 14.1992C14.0836 14.21 14.066 14.2188 14.0445 14.2188C14.023 14.2188 14.0054 14.2275 14.0054 14.2383C14.0054 14.249 13.9879 14.2578 13.9664 14.2578C13.9449 14.2578 13.9273 14.2666 13.9273 14.2773C13.9273 14.2881 13.9097 14.2969 13.8882 14.2969C13.8668 14.2969 13.8492 14.3057 13.8492 14.3164C13.8492 14.3271 13.8316 14.3359 13.8101 14.3359C13.7886 14.3359 13.7711 14.3447 13.7711 14.3555C13.7711 14.3662 13.7535 14.375 13.732 14.375C13.7105 14.375 13.6929 14.3838 13.6929 14.3945C13.6929 14.4053 13.6578 14.4141 13.6148 14.4141C13.5718 14.4141 13.5367 14.4229 13.5367 14.4336C13.5367 14.4443 13.5103 14.4531 13.4781 14.4531C13.4459 14.4531 13.4195 14.4619 13.4195 14.4727C13.4195 14.4834 13.3931 14.4922 13.3609 14.4922C13.3287 14.4922 13.3023 14.501 13.3023 14.5117C13.3023 14.5225 13.2759 14.5312 13.2437 14.5312C13.2115 14.5312 13.1851 14.54 13.1851 14.5508C13.1851 14.5615 13.1588 14.5703 13.1265 14.5703C13.0943 14.5703 13.0679 14.5791 13.0679 14.5898C13.0679 14.6006 13.024 14.6094 12.9703 14.6094C12.9166 14.6094 12.8726 14.6182 12.8726 14.6289C12.8726 14.6396 12.8375 14.6484 12.7945 14.6484C12.7515 14.6484 12.7164 14.6572 12.7164 14.668C12.7164 14.6787 12.6724 14.6875 12.6187 14.6875C12.565 14.6875 12.5211 14.6963 12.5211 14.707C12.5211 14.7179 12.469 14.7266 12.4039 14.7266C12.3388 14.7266 12.2867 14.7352 12.2867 14.7461C12.2867 14.7577 12.2151 14.7656 12.1109 14.7656C12.0067 14.7656 11.9351 14.7736 11.9351 14.7852C11.9351 14.7972 11.831 14.8047 11.6617 14.8047C11.4924 14.8047 11.3882 14.8121 11.3882 14.8242C11.3882 14.8366 11.232 14.8438 10.9586 14.8438C10.6851 14.8438 10.5289 14.8366 10.5289 14.8242C10.5289 14.8122 10.4312 14.8047 10.275 14.8047C10.1187 14.8047 10.0211 14.7972 10.0211 14.7852C10.0211 14.7738 9.95596 14.7656 9.86481 14.7656C9.77365 14.7656 9.70856 14.7575 9.70856 14.7461C9.70856 14.7354 9.66461 14.7266 9.6109 14.7266C9.55719 14.7266 9.51324 14.7178 9.51324 14.707C9.51324 14.6962 9.46115 14.6875 9.39606 14.6875C9.33096 14.6875 9.27887 14.6788 9.27887 14.668C9.27887 14.6572 9.24371 14.6484 9.20074 14.6484C9.15778 14.6484 9.12262 14.6396 9.12262 14.6289C9.12262 14.6182 9.08746 14.6094 9.04449 14.6094C9.00153 14.6094 8.96637 14.6006 8.96637 14.5898C8.96637 14.5791 8.94 14.5703 8.90778 14.5703C8.87555 14.5703 8.84918 14.5615 8.84918 14.5508C8.84918 14.54 8.81403 14.5312 8.77106 14.5312C8.72809 14.5312 8.69293 14.5225 8.69293 14.5117C8.69293 14.501 8.66656 14.4922 8.63434 14.4922C8.60211 14.4922 8.57574 14.4834 8.57574 14.4727C8.57574 14.4619 8.54938 14.4531 8.51715 14.4531C8.48492 14.4531 8.45856 14.4443 8.45856 14.4336C8.45856 14.4229 8.44098 14.4141 8.41949 14.4141C8.39801 14.4141 8.38043 14.4053 8.38043 14.3945C8.38043 14.3838 8.35406 14.375 8.32184 14.375C8.28961 14.375 8.26324 14.3662 8.26324 14.3555C8.26324 14.3447 8.24567 14.3359 8.22418 14.3359C8.2027 14.3359 8.18512 14.3271 8.18512 14.3164C8.18512 14.3057 8.16754 14.2969 8.14606 14.2969C8.12457 14.2969 8.10699 14.2881 8.10699 14.2773C8.10699 14.2666 8.08942 14.2578 8.06793 14.2578C8.04645 14.2578 8.02887 14.249 8.02887 14.2383C8.02887 14.2275 8.01129 14.2188 7.98981 14.2188C7.96832 14.2188 7.95074 14.21 7.95074 14.1992C7.95074 14.1885 7.93317 14.1797 7.91168 14.1797C7.8902 14.1797 7.87262 14.1709 7.87262 14.1602C7.87262 14.1494 7.85504 14.1406 7.83356 14.1406C7.81207 14.1406 7.79449 14.1318 7.79449 14.1211C7.79449 14.1104 7.77885 14.1016 7.75975 14.1016C7.74063 14.1016 7.71233 14.084 7.69684 14.0625C7.68135 14.041 7.65305 14.0234 7.63393 14.0234C7.61483 14.0234 7.59918 14.0146 7.59918 14.0039C7.59918 13.9932 7.58514 13.9844 7.56795 13.9844C7.55078 13.9844 7.51209 13.958 7.48199 13.9258C7.4519 13.8936 7.41674 13.8672 7.40387 13.8672C7.391 13.8672 7.35584 13.8408 7.32574 13.8086C7.29565 13.7764 7.26127 13.75 7.24936 13.75C7.22133 13.75 6.73981 13.2688 6.73981 13.2408C6.73981 13.2292 6.70465 13.1858 6.66168 13.1445C6.61871 13.1032 6.58356 13.0575 6.58356 13.0429C6.58356 13.0284 6.56598 13.0038 6.54449 12.9883C6.52301 12.9728 6.50543 12.9464 6.50543 12.9297C6.50543 12.9129 6.48785 12.8866 6.46637 12.8711C6.44489 12.8556 6.42731 12.8292 6.42731 12.8125C6.42731 12.7958 6.40973 12.7694 6.38824 12.7539C6.36676 12.7384 6.34918 12.7101 6.34918 12.691C6.34918 12.6719 6.34039 12.6562 6.32965 12.6562C6.31891 12.6562 6.31012 12.6387 6.31012 12.6172C6.31012 12.5957 6.30133 12.5781 6.29059 12.5781C6.27985 12.5781 6.27106 12.5605 6.27106 12.5391C6.27106 12.5176 6.26227 12.5 6.25153 12.5C6.24078 12.5 6.23199 12.4824 6.23199 12.4609C6.23199 12.4395 6.22321 12.4219 6.21246 12.4219C6.20172 12.4219 6.19293 12.4043 6.19293 12.3828C6.19293 12.3613 6.18414 12.3438 6.1734 12.3438C6.16266 12.3438 6.15387 12.3174 6.15387 12.2852C6.15387 12.2529 6.14508 12.2266 6.13434 12.2266C6.1236 12.2266 6.11481 12.1914 6.11481 12.1484C6.11481 12.1055 6.10602 12.0703 6.09528 12.0703C6.08453 12.0703 6.07574 12.0439 6.07574 12.0117C6.07574 11.9795 6.06696 11.9531 6.05621 11.9531C6.04451 11.9531 6.03668 11.8755 6.03668 11.7594C6.03668 11.6236 6.0294 11.5623 6.01227 11.5544C5.99274 11.5453 5.99274 11.5407 6.01227 11.5316C6.02834 11.5241 6.03668 11.4741 6.03668 11.3851C6.03668 11.308 6.04508 11.25 6.05621 11.25C6.06696 11.25 6.07574 11.2256 6.07574 11.1957C6.07574 11.1638 6.09188 11.1298 6.11481 11.1133C6.13629 11.0978 6.15387 11.0695 6.15387 11.0504C6.15387 11.0313 6.16266 11.0156 6.1734 11.0156C6.18414 11.0156 6.19293 11.0022 6.19293 10.9859C6.19293 10.9497 6.39678 10.7422 6.43235 10.7422C6.44631 10.7422 6.47041 10.7246 6.4859 10.7031C6.50139 10.6816 6.52969 10.6641 6.54881 10.6641C6.56791 10.6641 6.58356 10.6553 6.58356 10.6445C6.58356 10.6338 6.60992 10.625 6.64215 10.625C6.67438 10.625 6.70074 10.6162 6.70074 10.6055C6.70074 10.5947 6.72711 10.5859 6.75934 10.5859C6.79156 10.5859 6.81793 10.5771 6.81793 10.5664C6.81793 10.5555 6.87002 10.5469 6.93512 10.5469C7.00022 10.5469 7.05231 10.5382 7.05231 10.5273C7.05231 10.5165 7.1044 10.5078 7.16949 10.5078C7.23459 10.5078 7.28668 10.5165 7.28668 10.5273C7.28668 10.5382 7.33877 10.5469 7.40387 10.5469C7.46897 10.5469 7.52106 10.5555 7.52106 10.5664C7.52106 10.5771 7.54742 10.5859 7.57965 10.5859C7.61188 10.5859 7.63824 10.5947 7.63824 10.6055C7.63824 10.6162 7.65582 10.625 7.67731 10.625C7.69879 10.625 7.71637 10.6338 7.71637 10.6445C7.71637 10.6553 7.73041 10.6641 7.7476 10.6641C7.76477 10.6641 7.80346 10.6904 7.83356 10.7227C7.86365 10.7549 7.89824 10.7812 7.91041 10.7812C7.93916 10.7812 8.06793 10.91 8.06793 10.9388C8.06793 10.9509 8.0943 10.9855 8.12653 11.0156C8.15875 11.0457 8.18512 11.0825 8.18512 11.0973C8.18512 11.1121 8.2027 11.1369 8.22418 11.1523C8.24567 11.1678 8.26324 11.1961 8.26324 11.2153C8.26324 11.2344 8.27203 11.25 8.28278 11.25C8.29352 11.25 8.30231 11.2676 8.30231 11.2891C8.30231 11.3105 8.3111 11.3281 8.32184 11.3281C8.33258 11.3281 8.34137 11.3545 8.34137 11.3867C8.34137 11.4189 8.35016 11.4453 8.3609 11.4453C8.37164 11.4453 8.38043 11.4629 8.38043 11.4844C8.38043 11.5059 8.38922 11.5234 8.39996 11.5234C8.41071 11.5234 8.41949 11.541 8.41949 11.5625C8.41949 11.584 8.42828 11.6016 8.43903 11.6016C8.44977 11.6016 8.45856 11.6191 8.45856 11.6406C8.45856 11.6621 8.46735 11.6797 8.47809 11.6797C8.48883 11.6797 8.49762 11.6973 8.49762 11.7188C8.49762 11.7402 8.50641 11.7578 8.51715 11.7578C8.52789 11.7578 8.53668 11.7754 8.53668 11.7969C8.53668 11.8184 8.54547 11.8359 8.55621 11.8359C8.56696 11.8359 8.57574 11.8535 8.57574 11.875C8.57574 11.8965 8.58453 11.9141 8.59528 11.9141C8.60602 11.9141 8.61481 11.9297 8.61481 11.9488C8.61481 11.9679 8.63239 11.9962 8.65387 12.0117C8.67535 12.0272 8.69293 12.052 8.69293 12.0668C8.69293 12.0816 8.7193 12.1183 8.75153 12.1484C8.78375 12.1785 8.81012 12.2153 8.81012 12.2301C8.81012 12.2449 8.8277 12.2697 8.84918 12.2852C8.87067 12.3006 8.88824 12.3247 8.88824 12.3386C8.88824 12.3715 9.25115 12.7344 9.28407 12.7344C9.29795 12.7344 9.32197 12.752 9.33746 12.7734C9.35295 12.7949 9.38125 12.8125 9.40037 12.8125C9.41948 12.8125 9.43512 12.8213 9.43512 12.832C9.43512 12.8428 9.4527 12.8516 9.47418 12.8516C9.49567 12.8516 9.51324 12.8604 9.51324 12.8711C9.51324 12.8818 9.53082 12.8906 9.55231 12.8906C9.57379 12.8906 9.59137 12.8994 9.59137 12.9102C9.59137 12.9209 9.60895 12.9297 9.63043 12.9297C9.65192 12.9297 9.66949 12.9385 9.66949 12.9492C9.66949 12.96 9.69586 12.9688 9.72809 12.9688C9.76031 12.9688 9.78668 12.9775 9.78668 12.9883C9.78668 12.999 9.80426 13.0078 9.82574 13.0078C9.84723 13.0078 9.86481 13.0166 9.86481 13.0273C9.86481 13.0381 9.89996 13.0469 9.94293 13.0469C9.9859 13.0469 10.0211 13.0557 10.0211 13.0664C10.0211 13.0771 10.065 13.0859 10.1187 13.0859C10.1724 13.0859 10.2164 13.0947 10.2164 13.1055C10.2164 13.1173 10.301 13.125 10.4312 13.125C10.5614 13.125 10.6461 13.1327 10.6461 13.1445C10.6461 13.1566 10.7502 13.1641 10.9195 13.1641C11.0888 13.1641 11.1929 13.1566 11.1929 13.1445C11.1929 13.1326 11.2841 13.125 11.4273 13.125C11.5705 13.125 11.6617 13.1174 11.6617 13.1055C11.6617 13.0946 11.7138 13.0859 11.7789 13.0859C11.844 13.0859 11.8961 13.0773 11.8961 13.0664C11.8961 13.0557 11.9312 13.0469 11.9742 13.0469C12.0172 13.0469 12.0523 13.0381 12.0523 13.0273C12.0523 13.0166 12.0787 13.0078 12.1109 13.0078C12.1431 13.0078 12.1695 12.999 12.1695 12.9883C12.1695 12.9775 12.1959 12.9688 12.2281 12.9688C12.2603 12.9688 12.2867 12.96 12.2867 12.9492C12.2867 12.9385 12.313 12.9297 12.3453 12.9297C12.3775 12.9297 12.4039 12.9209 12.4039 12.9102C12.4039 12.8994 12.4214 12.8906 12.4429 12.8906C12.4644 12.8906 12.482 12.8818 12.482 12.8711C12.482 12.8604 12.4996 12.8516 12.5211 12.8516C12.5425 12.8516 12.5601 12.8428 12.5601 12.832C12.5601 12.8213 12.5758 12.8125 12.5949 12.8125C12.614 12.8125 12.6423 12.7949 12.6578 12.7734C12.6733 12.752 12.7016 12.7344 12.7207 12.7344C12.7398 12.7344 12.7554 12.7256 12.7554 12.7148C12.7554 12.7041 12.7695 12.6953 12.7867 12.6953C12.8038 12.6953 12.8425 12.6689 12.8726 12.6367C12.9027 12.6045 12.9372 12.5781 12.9492 12.5781C12.9797 12.5781 13.2242 12.3305 13.2242 12.2996C13.2242 12.2857 13.2418 12.2616 13.2632 12.2461C13.2847 12.2306 13.3023 12.2023 13.3023 12.1832C13.3023 12.1641 13.3111 12.1484 13.3218 12.1484C13.3326 12.1484 13.3414 12.1309 13.3414 12.1094C13.3414 12.0879 13.3502 12.0703 13.3609 12.0703C13.3716 12.0703 13.3804 12.0527 13.3804 12.0312C13.3804 12.0098 13.3892 11.9922 13.4 11.9922C13.4107 11.9922 13.4195 11.957 13.4195 11.9141C13.4195 11.8711 13.4283 11.8359 13.439 11.8359C13.4512 11.8359 13.4586 11.7253 13.4586 11.543C13.4586 11.3607 13.4512 11.25 13.439 11.25C13.4283 11.25 13.4195 11.2236 13.4195 11.1914C13.4195 11.1592 13.4107 11.1328 13.4 11.1328C13.3892 11.1328 13.3804 11.1084 13.3804 11.0785C13.3804 11.0467 13.3643 11.0126 13.3414 10.9961C13.3199 10.9806 13.3023 10.9523 13.3023 10.9332C13.3023 10.9141 13.2935 10.8984 13.2828 10.8984C13.272 10.8984 13.2632 10.8851 13.2632 10.8687C13.2632 10.8348 13.0605 10.625 13.0278 10.625C13.0159 10.625 12.9725 10.5898 12.9312 10.5469C12.8899 10.5039 12.8442 10.4688 12.8296 10.4688C12.815 10.4688 12.7905 10.4512 12.775 10.4297C12.7595 10.4082 12.7331 10.3906 12.7164 10.3906C12.6996 10.3906 12.6733 10.373 12.6578 10.3516C12.6423 10.3301 12.614 10.3125 12.5949 10.3125C12.5758 10.3125 12.5601 10.3037 12.5601 10.293C12.5601 10.2822 12.5425 10.2734 12.5211 10.2734C12.4996 10.2734 12.482 10.2646 12.482 10.2539C12.482 10.2432 12.4556 10.2344 12.4234 10.2344C12.3912 10.2344 12.3648 10.2256 12.3648 10.2148C12.3648 10.2041 12.3384 10.1953 12.3062 10.1953C12.274 10.1953 12.2476 10.1865 12.2476 10.1758C12.2476 10.165 12.2213 10.1562 12.189 10.1562C12.1568 10.1562 12.1304 10.1475 12.1304 10.1367C12.1304 10.126 12.0953 10.1172 12.0523 10.1172C12.0093 10.1172 11.9742 10.1084 11.9742 10.0977C11.9742 10.0869 11.939 10.0781 11.8961 10.0781C11.8531 10.0781 11.8179 10.0693 11.8179 10.0586C11.8179 10.0479 11.7828 10.0391 11.7398 10.0391C11.6968 10.0391 11.6617 10.0303 11.6617 10.0195C11.6617 10.0088 11.6265 10 11.5836 10C11.5406 10 11.5054 9.99121 11.5054 9.98047C11.5054 9.96973 11.4703 9.96094 11.4273 9.96094C11.3843 9.96094 11.3492 9.95215 11.3492 9.94141C11.3492 9.93066 11.3052 9.92188 11.2515 9.92188C11.1978 9.92188 11.1539 9.91309 11.1539 9.90234C11.1539 9.8916 11.1187 9.88281 11.0757 9.88281C11.0328 9.88281 10.9976 9.87402 10.9976 9.86328C10.9976 9.85254 10.9537 9.84375 10.9 9.84375C10.8463 9.84375 10.8023 9.83496 10.8023 9.82422C10.8023 9.81348 10.7672 9.80469 10.7242 9.80469C10.6812 9.80469 10.6461 9.7959 10.6461 9.78516C10.6461 9.77441 10.6021 9.76562 10.5484 9.76562C10.4947 9.76562 10.4507 9.75684 10.4507 9.74609C10.4507 9.73535 10.4068 9.72656 10.3531 9.72656C10.2994 9.72656 10.2554 9.71777 10.2554 9.70703C10.2554 9.69629 10.2115 9.6875 10.1578 9.6875C10.1041 9.6875 10.0601 9.67871 10.0601 9.66797C10.0601 9.65723 10.025 9.64844 9.98199 9.64844C9.93903 9.64844 9.90387 9.63965 9.90387 9.62891C9.90387 9.61816 9.86871 9.60938 9.82574 9.60938C9.78278 9.60938 9.74762 9.60059 9.74762 9.58984C9.74762 9.5791 9.71246 9.57031 9.66949 9.57031C9.62653 9.57031 9.59137 9.56152 9.59137 9.55078C9.59137 9.54004 9.55621 9.53125 9.51324 9.53125C9.47028 9.53125 9.43512 9.52246 9.43512 9.51172C9.43512 9.50098 9.39996 9.49219 9.35699 9.49219C9.31403 9.49219 9.27887 9.4834 9.27887 9.47266C9.27887 9.46191 9.24371 9.45312 9.20074 9.45312C9.15778 9.45312 9.12262 9.44434 9.12262 9.43359C9.12262 9.42285 9.09625 9.41406 9.06403 9.41406C9.0318 9.41406 9.00543 9.40527 9.00543 9.39453C9.00543 9.38379 8.97906 9.375 8.94684 9.375C8.91461 9.375 8.88824 9.36621 8.88824 9.35547C8.88824 9.34473 8.85309 9.33594 8.81012 9.33594C8.76715 9.33594 8.73199 9.32715 8.73199 9.31641C8.73199 9.30566 8.70563 9.29688 8.6734 9.29688C8.64117 9.29688 8.61481 9.28809 8.61481 9.27734C8.61481 9.2666 8.59723 9.25781 8.57574 9.25781C8.55426 9.25781 8.53668 9.24902 8.53668 9.23828C8.53668 9.22754 8.51031 9.21875 8.47809 9.21875C8.44586 9.21875 8.41949 9.20996 8.41949 9.19922C8.41949 9.18848 8.39313 9.17969 8.3609 9.17969C8.32867 9.17969 8.30231 9.1709 8.30231 9.16016C8.30231 9.14941 8.28473 9.14062 8.26324 9.14062C8.24176 9.14062 8.22418 9.13184 8.22418 9.12109C8.22418 9.11035 8.19781 9.10156 8.16559 9.10156C8.13336 9.10156 8.10699 9.09277 8.10699 9.08203C8.10699 9.07129 8.08942 9.0625 8.06793 9.0625C8.04645 9.0625 8.02887 9.05371 8.02887 9.04297C8.02887 9.03223 8.0025 9.02344 7.97028 9.02344C7.93805 9.02344 7.91168 9.01465 7.91168 9.00391C7.91168 8.99316 7.8941 8.98438 7.87262 8.98438C7.85114 8.98438 7.83356 8.97559 7.83356 8.96484C7.83356 8.9541 7.81598 8.94531 7.79449 8.94531C7.77301 8.94531 7.75543 8.93652 7.75543 8.92578C7.75543 8.91504 7.73979 8.90625 7.72069 8.90625C7.70157 8.90625 7.67326 8.88867 7.65778 8.86719C7.64229 8.8457 7.61399 8.82812 7.59487 8.82812C7.57576 8.82812 7.56012 8.81934 7.56012 8.80859C7.56012 8.79785 7.54254 8.78906 7.52106 8.78906C7.49957 8.78906 7.48199 8.78027 7.48199 8.76953C7.48199 8.75879 7.46795 8.75 7.45076 8.75C7.4336 8.75 7.3949 8.72363 7.36481 8.69141C7.33471 8.65918 7.29955 8.63281 7.28668 8.63281C7.27381 8.63281 7.23865 8.60645 7.20856 8.57422C7.17846 8.54199 7.14405 8.51562 7.13209 8.51562C7.10397 8.51562 6.77887 8.1909 6.77887 8.16281C6.77887 8.15107 6.74371 8.1077 6.70074 8.06641C6.65778 8.02512 6.62262 7.97941 6.62262 7.96482C6.62262 7.95023 6.60504 7.92564 6.58356 7.91016C6.56207 7.89467 6.54449 7.86637 6.54449 7.84725C6.54449 7.82814 6.53571 7.8125 6.52496 7.8125C6.51422 7.8125 6.50543 7.79492 6.50543 7.77344C6.50543 7.75195 6.49664 7.73438 6.4859 7.73438C6.47516 7.73438 6.46637 7.7168 6.46637 7.69531C6.46637 7.67383 6.45758 7.65625 6.44684 7.65625C6.4361 7.65625 6.42731 7.63867 6.42731 7.61719C6.42731 7.5957 6.41852 7.57812 6.40778 7.57812C6.39703 7.57812 6.38824 7.55176 6.38824 7.51953C6.38824 7.4873 6.37946 7.46094 6.36871 7.46094C6.35797 7.46094 6.34918 7.42578 6.34918 7.38281C6.34918 7.33984 6.34039 7.30469 6.32965 7.30469C6.31891 7.30469 6.31012 7.26953 6.31012 7.22656C6.31012 7.18359 6.30133 7.14844 6.29059 7.14844C6.27901 7.14844 6.27106 7.07682 6.27106 6.97266C6.27106 6.8685 6.26311 6.79688 6.25153 6.79688C6.23994 6.79688 6.23199 6.72525 6.23199 6.62109C6.23199 6.51693 6.23994 6.44531 6.25153 6.44531C6.26291 6.44531 6.27106 6.38021 6.27106 6.28906C6.27106 6.19791 6.2792 6.13281 6.29059 6.13281C6.30133 6.13281 6.31012 6.09766 6.31012 6.05469C6.31012 6.01172 6.31891 5.97656 6.32965 5.97656C6.34039 5.97656 6.34918 5.94141 6.34918 5.89844C6.34918 5.85547 6.35797 5.82031 6.36871 5.82031C6.37946 5.82031 6.38824 5.80273 6.38824 5.78125C6.38824 5.75977 6.39703 5.74219 6.40778 5.74219C6.41852 5.74219 6.42731 5.71582 6.42731 5.68359C6.42731 5.65137 6.4361 5.625 6.44684 5.625C6.45758 5.625 6.46637 5.60742 6.46637 5.58594C6.46637 5.56445 6.47516 5.54688 6.4859 5.54688C6.49664 5.54688 6.50543 5.5293 6.50543 5.50781C6.50543 5.48633 6.51422 5.46875 6.52496 5.46875C6.53571 5.46875 6.54449 5.45471 6.54449 5.43752C6.54449 5.42035 6.57086 5.38166 6.60309 5.35156C6.63531 5.32147 6.66168 5.28471 6.66168 5.26992C6.66168 5.25512 6.67926 5.23033 6.70074 5.21484C6.72223 5.19936 6.73981 5.17535 6.73981 5.1615C6.73981 5.1308 7.17981 4.6875 7.21028 4.6875C7.22219 4.6875 7.25658 4.66113 7.28668 4.62891C7.31678 4.59668 7.35354 4.57031 7.36832 4.57031C7.38313 4.57031 7.40791 4.55273 7.4234 4.53125C7.43889 4.50977 7.46526 4.49219 7.48199 4.49219C7.49873 4.49219 7.5251 4.47461 7.54059 4.45312C7.55608 4.43164 7.58438 4.41406 7.6035 4.41406C7.6226 4.41406 7.63824 4.40527 7.63824 4.39453C7.63824 4.38379 7.65582 4.375 7.67731 4.375C7.69879 4.375 7.71637 4.36621 7.71637 4.35547C7.71637 4.34473 7.73395 4.33594 7.75543 4.33594C7.77692 4.33594 7.79449 4.32715 7.79449 4.31641C7.79449 4.30566 7.81207 4.29688 7.83356 4.29688C7.85504 4.29688 7.87262 4.28809 7.87262 4.27734C7.87262 4.2666 7.8902 4.25781 7.91168 4.25781C7.93317 4.25781 7.95074 4.24902 7.95074 4.23828C7.95074 4.22754 7.96832 4.21875 7.98981 4.21875C8.01129 4.21875 8.02887 4.20996 8.02887 4.19922C8.02887 4.18848 8.05524 4.17969 8.08746 4.17969C8.11969 4.17969 8.14606 4.1709 8.14606 4.16016C8.14606 4.14941 8.16364 4.14062 8.18512 4.14062C8.2066 4.14062 8.22418 4.13184 8.22418 4.12109C8.22418 4.11035 8.25055 4.10156 8.28278 4.10156C8.315 4.10156 8.34137 4.09277 8.34137 4.08203C8.34137 4.07129 8.35895 4.0625 8.38043 4.0625C8.40192 4.0625 8.41949 4.05371 8.41949 4.04297C8.41949 4.03223 8.44586 4.02344 8.47809 4.02344C8.51031 4.02344 8.53668 4.01465 8.53668 4.00391C8.53668 3.99316 8.56305 3.98438 8.59528 3.98438C8.6275 3.98438 8.65387 3.97559 8.65387 3.96484C8.65387 3.9541 8.68903 3.94531 8.73199 3.94531C8.77496 3.94531 8.81012 3.93652 8.81012 3.92578C8.81012 3.91504 8.83649 3.90625 8.86871 3.90625C8.90094 3.90625 8.92731 3.89746 8.92731 3.88672C8.92731 3.87598 8.97125 3.86719 9.02496 3.86719C9.07867 3.86719 9.12262 3.8584 9.12262 3.84766C9.12262 3.83691 9.16656 3.82812 9.22028 3.82812C9.27399 3.82812 9.31793 3.81934 9.31793 3.80859C9.31793 3.79785 9.36188 3.78906 9.41559 3.78906C9.4693 3.78906 9.51324 3.78027 9.51324 3.76953C9.51324 3.75814 9.57834 3.75 9.66949 3.75C9.76065 3.75 9.82574 3.74186 9.82574 3.73047C9.82574 3.71875 9.90387 3.71094 10.0211 3.71094C10.1382 3.71094 10.2164 3.70312 10.2164 3.69141C10.2164 3.67873 10.4768 3.67188 10.9586 3.67188C11.4403 3.67188 11.7007 3.67873 11.7007 3.69141Z" fill="#90A4AE"/>
</svg>
