<svg width="21" height="17" viewBox="0 0 21 17" fill="none" xmlns="http://www.w3.org/2000/svg">
<path d="M16.8886 16.6607C16.6628 16.6582 16.4617 16.5869 16.279 16.4527C14.9986 15.513 13.717 14.5751 12.4359 13.6367C12.2063 13.4685 11.9751 13.3024 11.7478 13.131C11.6881 13.086 11.6522 13.0823 11.5935 13.1375C10.7984 13.888 10.0006 14.6355 9.20308 15.3833C9.14291 15.4397 9.0825 15.4959 9.01861 15.5479C8.67964 15.8245 8.0366 15.727 7.85683 15.1728C7.28857 13.421 6.7005 11.6753 6.13001 9.92401C6.0686 9.73583 5.97921 9.64223 5.78707 9.5838C4.35614 9.1485 2.92942 8.69909 1.50121 8.25463C1.18922 8.15757 1.00971 7.94487 0.998316 7.65492C0.985935 7.34516 1.13871 7.11736 1.45813 6.99579C2.1128 6.74669 2.76971 6.50305 3.42612 6.25841C8.0985 4.51673 12.7709 2.77455 17.444 1.03461C18.3554 0.695383 19.2694 0.363092 20.1838 0.0320388C20.6042 -0.120241 21.0772 0.29599 20.9863 0.738219C20.7939 1.67468 20.5961 2.60989 20.3997 3.54536C19.9414 5.731 19.4828 7.9164 19.0242 10.1018C18.6192 12.0331 18.2153 13.965 17.808 15.8958C17.7018 16.4005 17.3967 16.6488 16.8886 16.6607ZM8.52587 13.7904C8.5328 13.7899 8.53999 13.7894 8.54692 13.7889C8.57267 13.5349 8.59966 13.2811 8.62392 13.027C8.68806 12.3583 8.75243 11.6895 8.81285 11.0204C8.82028 10.9395 8.85272 10.885 8.9114 10.8327C9.27489 10.5089 9.63615 10.1828 9.99741 9.85641C11.4303 8.56216 12.8642 7.2694 14.2949 5.97292C15.3099 5.0533 16.3196 4.12774 17.3328 3.20638C17.4098 3.13656 17.4447 3.06277 17.3885 2.96794C17.3417 2.88895 17.2006 2.85626 17.1107 2.90405C17.0379 2.94268 16.9686 2.98775 16.8988 3.03157C13.6657 5.06419 10.455 7.13173 7.23459 9.18391C7.1504 9.23739 7.14496 9.28592 7.1717 9.37308C7.49309 10.4123 7.81028 11.4527 8.12871 12.493C8.26143 12.925 8.39365 13.3578 8.52587 13.7904Z" fill="#90A4AE"/>
</svg>
