<svg width="20" height="20" viewBox="0 0 20 20" fill="none" xmlns="http://www.w3.org/2000/svg">
<path d="M16.9194 0H3.08295C1.3789 0 0 1.38127 0 3.08295V16.9194C0 18.6211 1.3789 20 3.08057 20H16.9171C18.6187 20 19.9976 18.6211 19.9976 16.9194V3.08295C20 1.38127 18.6211 0 16.9194 0ZM16.2478 14.0168L14.4203 14.0145C14.4203 14.0145 14.0263 14.1047 13.5113 13.751C12.8278 13.2811 12.1823 12.0612 11.6815 12.2202C11.1712 12.3816 11.1878 13.49 11.1878 13.49C11.1878 13.49 11.1926 13.7249 11.0763 13.8507C10.9505 13.986 10.7013 14.0145 10.7013 14.0145H9.88015C9.88015 14.0145 8.07405 14.1118 6.48629 12.4552C4.75139 10.6515 3.2206 7.04165 3.2206 7.04165C3.2206 7.04165 3.13279 6.80669 3.22772 6.69277C3.33689 6.56461 3.62881 6.55749 3.62881 6.55749H5.58443C5.58443 6.55749 5.76955 6.58835 5.90008 6.68565C6.00926 6.76635 6.07096 6.91587 6.07096 6.91587C6.07096 6.91587 6.38661 7.73229 6.80669 8.45378C7.62549 9.86591 8.00285 10.1744 8.28053 10.0225C8.68637 9.80183 8.56295 8.02658 8.56295 8.02658C8.56295 8.02658 8.57007 7.38104 8.35885 7.09624C8.19509 6.87315 7.88656 6.80907 7.75128 6.79008C7.6421 6.77584 7.82247 6.51952 8.05743 6.4056C8.40869 6.23235 9.0305 6.22286 9.76623 6.22997C10.3382 6.23472 10.5043 6.27269 10.725 6.32491C11.3991 6.48867 11.1712 7.1176 11.1712 8.62466C11.1712 9.10882 11.0834 9.78521 11.4323 10.0107C11.5818 10.108 11.9497 10.0249 12.8634 8.47039C13.3001 7.72992 13.6276 6.84941 13.6276 6.84941C13.6276 6.84941 13.6988 6.67853 13.8104 6.61208C13.9243 6.54325 14.0762 6.55987 14.0762 6.55987H16.1386C16.1386 6.55987 16.7533 6.5124 16.853 6.79245C16.9574 7.08674 16.6228 7.76789 15.7826 8.89047C14.4013 10.7298 14.2494 10.5589 15.3934 11.6222C16.4875 12.6379 16.7153 13.134 16.7509 13.1933C17.2042 13.9433 16.2478 14.0168 16.2478 14.0168Z" fill="#90A4AE"/>
</svg>
