<svg width="21" height="20" viewBox="0 0 21 20" fill="none" xmlns="http://www.w3.org/2000/svg">
<path fill-rule="evenodd" clip-rule="evenodd" d="M2.40413 14.8634L0.99762 20L6.24352 18.622C7.6928 19.4108 9.32264 19.8289 10.981 19.8289H10.9857C16.4502 19.8289 20.8978 15.3813 20.8978 9.91684C20.8978 7.27014 19.8715 4.78023 17.9993 2.90805C16.1319 1.03112 13.642 0 10.9905 0C5.53076 0 1.08315 4.44761 1.0784 9.90734C1.0784 11.656 1.53456 13.3618 2.40413 14.8634ZM6.79472 17.0064L6.49536 16.8258L3.37823 17.6479L4.20978 14.6068L4.01496 14.2932C3.19292 12.9865 2.75576 11.4707 2.75576 9.91209C2.75576 5.36945 6.4526 1.67261 10.9905 1.68211C13.1905 1.68211 15.2623 2.53742 16.8161 4.09598C18.3699 5.6498 19.2252 7.72155 19.2252 9.9216C19.2252 14.4595 15.5284 18.1563 10.9905 18.1563H10.9857C9.50795 18.1563 8.05868 17.7572 6.79472 17.0064ZM15.6459 12.0505C15.818 12.1334 15.935 12.1898 15.9846 12.2737C16.0463 12.3782 16.0463 12.8724 15.842 13.4521C15.6329 14.0318 14.6446 14.5593 14.1694 14.6306C13.7417 14.6923 13.2048 14.7208 12.6108 14.5308C12.2497 14.4167 11.7888 14.2647 11.1996 14.0081C8.87154 13.0021 7.30243 10.7451 7.01176 10.327C6.99214 10.2988 6.97835 10.279 6.97054 10.2685C6.96854 10.2658 6.96634 10.2628 6.96394 10.2596C6.81845 10.0641 5.95842 8.90872 5.95842 7.70729C5.95842 6.55888 6.52152 5.96095 6.77832 5.68827C6.7946 5.67099 6.80964 5.65502 6.82323 5.6403C7.05132 5.39321 7.31741 5.33143 7.48372 5.33143C7.65003 5.33143 7.81634 5.33143 7.95889 5.34094C7.97607 5.34147 7.99392 5.3411 8.01234 5.34072C8.15705 5.33769 8.33782 5.33392 8.51485 5.76384C8.60311 5.97247 8.7422 6.31069 8.87811 6.64118C9.06412 7.09351 9.24418 7.53137 9.27987 7.60276C9.34165 7.7263 9.37966 7.86885 9.29888 8.03516C9.28934 8.05481 9.28033 8.07359 9.27165 8.09168C9.20687 8.2267 9.16074 8.32285 9.05179 8.44856C9.0072 8.50002 8.96075 8.55642 8.91445 8.61264C8.83248 8.71218 8.751 8.81113 8.68116 8.88097C8.55761 9.00451 8.42931 9.13756 8.57187 9.38465C8.71917 9.63174 9.21335 10.4443 9.94987 11.1C10.7417 11.8083 11.4302 12.1067 11.7783 12.2576C11.8459 12.2869 11.9007 12.3106 11.9408 12.3307C12.1879 12.4543 12.3352 12.4353 12.4778 12.2689C12.6203 12.1074 13.0955 11.5467 13.2618 11.2996C13.4234 11.0525 13.5897 11.0953 13.8178 11.1761C14.0459 11.2616 15.2623 11.8603 15.5094 11.9838C15.5581 12.0082 15.6036 12.0301 15.6459 12.0505Z" fill="#90A4AE"/>
</svg>
